<svg width="139" height="130" viewBox="0 0 139 130" fill="none" xmlns="http://www.w3.org/2000/svg">
<path d="M78.3555 40.5828C77.0655 38.9858 75.2855 38.6878 73.3905 38.7408C71.2025 38.8018 70.8935 37.4488 71.0415 35.7088C71.5385 29.8628 74.0505 24.5908 75.9045 19.1498C76.6275 17.0288 78.6005 15.4378 80.0875 13.7518C83.7355 9.61481 87.6585 5.68685 91.7555 1.98985C95.6835 -1.55515 100.092 -0.219166 101.862 4.84983C102.458 6.55483 102.981 8.44983 102.862 10.2118C102.418 16.7698 101.311 23.2228 98.7275 29.3418C97.7875 31.5678 96.9485 33.8369 95.8735 36.5679C99.6095 35.8719 102.131 33.4938 105.254 32.6638C116.903 29.5638 126.971 30.2289 134.895 39.5339C137.992 43.1709 138.689 47.3858 138.201 51.9498C138.115 52.7508 137.771 53.4178 137.233 53.9848C133.539 57.8748 129.31 60.7469 123.708 60.8509C120.485 60.9109 117.26 60.8939 114.036 60.8559C112.049 60.8329 110.188 61.1428 108.172 62.5628C111.676 64.6548 115.112 66.3628 118.742 67.1448C121.491 67.7368 124.002 68.7888 126.497 69.8338C131.225 71.8158 133.414 77.5879 131.533 82.2779C131.003 83.6009 130.006 84.7578 128.762 85.2458C125.953 86.3488 123.29 87.9578 120.01 87.6148C115.31 87.1228 110.565 86.9369 106.077 85.2839C103.763 84.4319 101.358 84.0639 98.9815 83.5119C96.8115 83.0069 95.3605 80.8228 92.3985 80.3188C93.9985 82.8248 95.2035 84.8818 96.5725 86.8238C102.64 95.4298 107.769 104.613 113.242 113.587C114.689 115.96 114.265 118.297 114.098 120.688C114.022 121.778 113.101 122.837 112.096 123.036C108.972 123.654 105.618 124.454 102.789 122.467C96.3895 117.971 90.8445 112.578 86.3165 106.126C83.8675 102.637 81.7895 98.8988 78.8795 95.6978C76.2265 92.7798 74.2235 89.3348 72.7905 84.5568C70.9225 88.7548 69.3485 92.0838 67.9455 95.4838C64.4015 104.068 61.7575 112.934 59.8965 122.033C59.5135 123.904 58.4235 125.321 57.2085 126.754C55.5275 128.736 53.4325 129.626 51.0855 128.872C48.5355 128.053 46.8155 126.188 46.0925 123.399C44.4915 117.223 46.4885 111.35 47.3985 105.387C48.1185 100.672 50.0955 96.3409 51.7605 91.9189C52.0725 91.0909 52.8065 90.3488 52.1305 89.1778C50.1225 89.1188 49.0715 90.7248 47.7735 91.8998C44.2605 95.0818 40.8055 98.3478 36.3745 100.272C35.1135 100.819 33.8415 101.515 32.5125 101.7C28.9765 102.193 25.8475 103.21 23.1855 105.844C21.4985 107.512 19.2005 107.13 17.2185 105.811C15.0175 104.347 13.4255 102.222 13.9925 99.6558C14.7265 96.3338 13.7435 93.0918 14.2235 89.7598C14.5175 87.7198 15.1245 86.6008 16.4575 85.2198C20.6265 80.9008 26.4535 79.4068 31.2325 76.1568C33.2375 74.7938 35.3565 73.5978 37.8285 72.0758C35.1115 70.3728 32.5405 70.7458 30.2005 71.2738C21.2305 73.2958 13.6825 70.3389 6.76352 64.9759C6.18252 64.5249 5.75551 63.9258 5.01651 63.5938C1.16251 61.8598 -0.132468 58.7208 0.0105315 54.6518C0.174532 49.9688 4.14552 45.3169 8.85752 45.2839C14.0355 45.2479 19.2305 45.4568 24.4185 45.7618C30.8405 46.1388 36.7685 47.6018 42.6025 49.8738C45.0555 50.8288 47.8605 51.5798 48.9845 54.4928C49.0075 54.6938 49.0305 54.8938 49.0575 55.0948C49.0705 56.5108 48.9825 57.9279 49.0595 59.3459C48.4395 65.0129 51.3315 69.3238 54.5305 73.5098C55.1105 74.1118 55.7875 74.5869 56.5055 75.0129C56.8865 75.2189 57.2455 75.4528 57.5985 75.6988C66.8965 80.9388 76.0825 80.3919 83.1655 74.1589C91.8655 66.2689 92.7165 58.7408 85.9635 49.2328C85.3455 48.3618 84.7315 47.4908 84.1945 46.5688C83.4515 45.0038 82.0485 44.2028 80.6425 43.3398C79.6105 42.7098 77.9555 42.4508 78.3555 40.5828Z" fill="white"/>
<path d="M50.7375 51.6669C48.8675 51.6519 48.2105 50.2679 47.4775 48.8809C42.6975 39.8299 38.3165 30.5959 35.3925 20.7639C34.0825 16.3569 33.5835 11.9359 36.0045 7.50387C38.4065 3.10787 42.4075 2.34387 45.3385 6.36587C47.3605 9.14087 49.4365 11.6669 52.6665 13.0419C53.7415 13.4989 54.2415 14.4109 54.4735 15.5289C55.0535 18.3279 56.9925 20.2428 58.6315 22.4528C60.9675 25.6038 62.6585 29.2459 64.4985 32.7449C65.4845 34.6189 66.2065 36.6319 67.1695 38.8649C65.7555 39.8569 64.2075 40.2669 62.5995 40.6019C60.2875 41.0839 58.2015 41.9369 57.2755 44.3899C57.2535 44.5799 57.2315 44.7698 57.2145 44.9608C57.1095 45.3308 56.9595 45.6829 56.7795 46.0229C56.3045 46.8559 55.6745 47.5689 55.0275 48.2689C54.7885 48.5579 54.5295 48.8309 54.2745 49.1059C54.1565 49.2509 54.0265 49.3869 53.9085 49.5319C53.4295 50.1159 52.9615 50.7119 52.3495 51.1709C52.0285 51.3839 51.6815 51.5399 51.3115 51.6489C51.1205 51.6569 50.9295 51.6619 50.7375 51.6669Z" fill="white"/>
<path d="M54.3984 47.9548C55.0274 47.0738 55.6565 46.1918 56.2855 45.3108C56.5455 44.9188 56.8695 44.5888 57.2645 44.3318L57.2745 44.3888C61.7025 42.4018 66.0895 40.4619 71.1075 40.2089C73.5795 40.0839 75.9305 40.7648 78.3555 40.5828C79.7225 41.4478 81.0734 42.3398 82.4614 43.1678C83.6284 43.8648 84.7745 44.5388 84.8015 46.1218C82.4585 46.8758 81.1215 44.7738 79.2485 44.1829C78.8555 44.0369 78.4744 43.8728 78.0884 43.7128C69.9024 41.1188 62.9604 43.3328 56.9274 49.1318C55.9114 50.1088 55.2354 51.8808 53.2684 50.7878C52.9944 50.1158 52.9715 49.4728 53.4855 48.8938L53.4874 48.8898C53.7964 48.5818 54.1044 48.2748 54.3984 47.9548Z" fill="#E2AD51"/>
<path d="M53.4865 48.8918C53.4875 49.5058 53.4875 50.1198 53.4885 50.7338C54.0585 53.9578 51.5805 55.4989 49.7925 57.4229C49.3155 57.4949 48.9035 57.3708 48.5635 57.0228C48.4625 56.1248 48.1425 55.1928 48.9715 54.4418L48.9825 54.4918C49.8895 53.7498 50.3055 52.7018 50.7375 51.6658L50.7295 51.6688C51.0405 51.3588 51.3515 51.0488 51.6605 50.7358C52.2685 50.1218 52.8775 49.5068 53.4865 48.8918Z" fill="#E6BD71"/>
<path d="M49.7586 57.1468C50.0986 54.4838 52.8726 53.2358 53.4886 50.7338C55.7146 49.3758 57.3606 47.3268 59.4306 45.7368C65.3396 41.1988 72.6645 39.9659 79.2885 43.3649L79.2705 43.3469C81.4975 43.5069 82.7335 45.6448 84.8015 46.1218C85.7775 47.2738 86.7915 48.3958 87.7235 49.5828C94.2175 57.8538 92.0905 69.0448 84.0055 74.7588C74.9375 81.4348 65.6285 80.8078 56.1725 75.6728L56.1905 75.6868C55.8075 75.1848 55.1695 74.9479 54.8405 74.3879C50.8695 70.9699 50.2625 65.9088 48.6275 61.3838C48.1325 60.0148 48.7536 58.3978 49.7586 57.1468Z" fill="#DD9C32"/>
<path d="M56.1716 75.6718C59.0836 75.7958 61.5807 77.1229 64.2567 78.1029C70.2677 80.3039 76.0567 78.4799 81.5087 75.6079C82.3207 75.1809 83.0236 74.6149 84.0046 74.7579C78.9616 80.7069 72.2956 81.0119 65.3696 79.8669C62.0066 79.3099 58.4956 78.6858 56.1716 75.6718Z" fill="#E4B45E"/>
<path d="M49.7584 57.1469C49.5494 60.3449 49.0004 63.6249 52.0164 66.0139C52.1784 66.1429 52.2684 66.6739 52.1564 66.7889C50.1634 68.8459 52.4604 69.8999 53.1654 71.3399C53.7584 72.5499 55.2894 73.0958 55.4244 74.6078C55.1204 75.0418 54.7943 75.0379 54.4483 74.6579C50.0663 70.4319 47.4743 65.4649 48.0343 59.1899C48.4853 58.5889 48.2484 57.7028 48.8724 57.1738C49.1684 57.1758 49.4634 57.1669 49.7584 57.1469Z" fill="#E3AE53"/>
<path d="M48.8724 57.1749C48.5934 57.8459 48.3134 58.5179 48.0344 59.1899C48.1264 57.5649 47.2435 55.7468 48.9705 54.4418C48.9385 55.3528 48.9054 56.2639 48.8724 57.1749Z" fill="#F5F2F1"/>
<path d="M54.4495 74.6589C54.7745 74.6429 55.0984 74.6258 55.4244 74.6088C55.6804 74.9678 55.9355 75.3269 56.1895 75.6859C55.3665 75.7539 54.8215 75.3539 54.4495 74.6589Z" fill="#E4B45E"/>
<path d="M57.2645 44.3318C57.1545 44.8748 56.7944 45.1669 56.2844 45.3109C56.4194 44.7919 56.7445 44.4638 57.2645 44.3318Z" fill="#F5F2F1"/>
<path d="M54.3985 47.9548C54.2685 48.4348 53.9715 48.7528 53.4885 48.8878C53.5745 48.3658 53.8815 48.0578 54.3985 47.9548Z" fill="#E6BD71"/>
<path d="M51.6605 50.7368C51.5345 51.2318 51.2155 51.5339 50.7295 51.6699C51.0395 51.3589 51.3495 51.0478 51.6605 50.7368Z" fill="#F5F2F1"/>
<path d="M79.2705 43.3469C79.2025 43.4749 79.1085 43.7219 79.0725 43.7139C78.7685 43.6439 78.8455 43.5079 79.2885 43.3649L79.2705 43.3469Z" fill="#E2AD51"/>
</svg>
