<svg width="115" height="134" viewBox="0 0 115 134" fill="none" xmlns="http://www.w3.org/2000/svg">
<path d="M70.9934 47.6575C76.0184 42.5275 79.5544 36.1575 84.9544 31.2935C87.6374 28.8775 89.6484 25.8105 92.6184 23.5045C95.3294 21.3995 98.1874 19.7485 101.19 18.2535C104.536 16.5885 107.151 17.8515 107.953 21.5175C108.212 22.7005 108.091 23.9355 108.94 24.9755C110.341 26.6915 109.939 28.2836 108.659 29.9586C106.249 33.1116 104.161 36.5285 101.578 39.5245C99.9434 41.4205 98.8764 43.6135 97.5764 45.6545C93.9864 51.2895 89.1464 55.7445 84.5384 60.4385C83.9204 61.0685 83.0304 61.5355 82.9434 62.6075C83.7354 63.6775 84.5314 62.7116 85.3314 62.6226C93.4994 61.7116 101.502 62.3115 108.956 66.0225C114.175 68.6205 114.278 73.7795 114.447 78.6915C114.588 82.8045 111.448 84.5425 108.402 85.9705C104.637 87.7355 100.753 88.5226 96.4074 87.5336C92.4344 86.6286 88.1835 87.0556 84.2645 85.5236C83.6445 85.2816 82.9614 85.4365 82.6144 85.9705C82.1604 86.6695 82.3065 87.4735 82.8585 88.0955C86.1785 91.8385 87.7174 96.4855 89.6814 100.962C91.7845 105.753 93.1254 110.718 93.9974 115.808C94.4514 118.457 93.2555 120.972 91.6525 123.045C90.4775 124.565 88.5094 124.145 86.8944 123.822C83.4824 123.139 80.7494 121.045 78.3944 118.681C74.7294 115.002 71.2794 111.095 67.9214 107.13C66.6664 105.648 65.7024 103.877 65.1254 101.911C64.8214 100.877 65.0014 99.3556 63.2794 98.8676C62.0774 103.309 61.8404 107.838 61.0374 112.265C60.1694 117.051 59.5574 121.877 57.6104 126.43C56.1884 129.755 54.3294 131.883 50.4144 132.507C47.7404 132.933 45.3354 134.14 42.5754 132.759C40.1344 131.538 38.9314 129.957 38.8514 127.062C38.6454 119.68 39.2824 112.374 40.9214 105.228C41.8654 101.112 43.4994 97.0695 45.4054 93.2875C46.7924 90.5365 47.9044 87.7115 48.9554 84.8605C50.1524 81.6155 50.0074 81.5676 53.3184 82.3126C53.7644 82.4126 54.2274 82.4375 54.6824 82.4965C56.1884 82.0115 57.2285 83.1805 58.4885 83.5665C62.4675 84.7855 65.9334 84.0435 68.7574 80.8705C72.8714 74.5015 76.3964 67.8935 77.3514 60.2145C78.8904 58.0895 78.1894 56.1406 76.7584 54.3596C75.0414 52.2226 73.3284 50.0705 71.2574 48.2465C71.1664 48.0505 71.0804 47.8545 70.9934 47.6575Z" fill="white"/>
<path d="M41.8225 61.3966C41.6875 61.4686 41.5065 61.5075 41.4225 61.6185C38.8335 65.0625 38.6675 65.3756 34.9865 63.3936C31.6495 61.5966 28.0385 62.7666 24.6545 61.5466C21.9895 60.5856 19.1335 60.2105 16.4005 59.1285C13.6755 58.0495 10.4675 58.3566 7.75248 56.7106C4.93248 55.0006 2.73846 52.6335 0.815464 50.1035C-0.892536 47.8555 0.256486 44.2926 2.65049 42.5756C6.72549 39.6536 11.2445 39.6466 15.8405 40.6306C22.6715 42.0926 29.4625 43.7365 36.2785 45.2675C39.2795 45.9415 38.9505 45.7806 39.1465 42.8966C39.6725 35.1456 36.0085 28.3165 34.7215 20.9725C33.5505 14.2915 34.8995 8.19554 37.3515 2.19154C38.0795 0.409538 39.7454 -0.343445 41.9204 0.146555C44.8844 0.813555 46.9165 2.83955 48.3004 5.10255C52.1805 11.4495 55.7325 17.9845 57.5285 25.3405C58.4365 29.0585 59.9715 32.6065 62.4785 35.6105C64.3255 37.8235 64.6265 40.5486 65.3355 43.1246C63.5735 44.2986 61.8435 43.6346 60.2165 43.8186C58.9055 43.9665 57.3845 43.3945 56.4955 44.9385C56.5855 45.4025 56.5955 45.9876 56.2465 46.2166C50.3985 50.0316 46.0555 55.1896 42.6685 61.2266C42.5405 61.4506 42.1445 61.4436 41.8225 61.3966Z" fill="white"/>
<path d="M47.2955 79.5555C47.5815 80.5885 47.8825 81.5346 46.8575 82.4686C45.0495 84.1176 43.4995 86.0636 41.6155 87.6116C35.9585 92.2616 30.5875 97.2226 25.1395 102.107C22.2585 104.689 18.4805 106.402 14.6125 107.264C10.0625 108.278 6.86246 105.592 6.66746 101.046C6.62146 99.9815 6.66045 98.8795 6.39445 97.8655C5.69145 95.1815 6.60448 93.0566 8.52848 91.3096C10.1035 89.8796 11.8934 88.6846 13.4544 87.2396C19.7104 81.4496 27.0635 76.9525 32.9015 70.6635C34.6175 68.8145 37.3375 68.8095 39.4565 67.3395C40.1025 69.5415 39.6195 71.9555 41.7615 73.2955C44.6745 74.4375 45.8165 77.1455 47.2955 79.5555Z" fill="white"/>
<path d="M41.8226 61.3965C43.8636 55.8435 47.7326 51.6816 51.9706 47.7366C53.3396 46.4616 55.5856 46.8085 56.4946 44.9385C61.5946 44.4255 66.5626 44.6136 70.9946 47.6586L71.0136 47.6066C73.8106 49.7196 75.9896 52.3955 77.7426 55.3835C78.6206 56.8805 79.7376 58.5215 78.4486 60.4025C77.9326 61.0235 77.7696 61.7595 77.8156 62.5375C78.0216 66.0355 76.7596 69.0605 75.0066 72.0015C73.9236 73.8185 73.1996 75.8455 72.2376 77.7385C71.4926 79.2065 71.0396 80.9136 69.3576 81.7136C69.0196 81.4196 68.7916 81.0576 68.6706 80.6276C68.5026 76.5706 71.3716 73.7535 73.0496 70.5245C77.7576 61.4625 73.6766 53.0565 65.9746 48.6675C62.5986 46.7435 58.1146 46.4225 54.3256 49.3945C52.4996 50.8265 50.9616 52.4895 49.3926 54.1445C48.9926 54.5575 48.5746 54.9595 48.2066 55.4025C47.6676 56.1205 47.2866 56.9445 46.7536 57.6695C46.3106 58.1855 45.7666 58.6075 45.3546 59.1545C45.1856 59.4475 45.0106 59.7355 44.8546 60.0355C44.4886 60.8415 44.3166 61.7135 43.9796 62.5305C43.6586 63.2335 43.2836 63.8955 42.6236 64.3455C42.2196 64.4375 41.8626 64.3385 41.5476 64.0765C41.6396 63.1805 41.7306 62.2885 41.8226 61.3965Z" fill="#DFA340"/>
<path d="M41.5476 64.0735C41.9026 64.0875 42.2576 64.1006 42.6126 64.1146C44.0686 67.5486 43.1066 71.6605 45.6236 74.7875C45.9066 75.0725 46.1887 75.3555 46.4967 75.6105C51.0527 75.7705 54.9606 76.8575 57.9276 80.9155C59.4726 83.0295 62.4346 83.2035 65.1156 82.0215C66.4526 81.4315 67.5766 80.0865 69.3006 80.6675C69.3196 81.0155 69.3397 81.3635 69.3587 81.7115C65.1107 86.4205 60.5796 86.6626 54.6806 82.4946C54.2116 81.9146 53.5986 81.4006 53.3036 80.7426C52.6966 79.3896 52.2516 78.9706 50.7506 80.0056C50.0406 80.4956 48.4746 79.7446 47.2966 79.5546C44.6906 78.1396 43.1416 75.7925 41.7626 73.2935C41.8976 70.2165 39.6926 67.1915 41.5476 64.0735Z" fill="#DFA23E"/>
<path d="M78.4474 60.4005C78.2424 55.6705 75.1954 52.5315 72.2144 49.3795C71.6974 48.8325 71.0684 48.4345 71.0144 47.6035C75.0494 49.0205 76.8414 52.6506 78.9304 55.8876C79.8074 57.2466 80.0554 59.0535 78.4474 60.4005Z" fill="#F5F2F1"/>
<path d="M69.3004 80.6675C68.2934 81.3315 67.3224 82.0605 66.2714 82.6475C62.0534 85.0055 57.8994 84.1175 55.5274 79.9215C53.9734 77.1735 51.2714 76.7015 49.1764 77.1775C47.2594 77.6125 46.4604 77.0805 45.3714 76.0855C42.2644 72.5995 41.9754 68.4635 42.6124 64.1145C42.6484 63.3665 42.7924 62.6715 43.5284 62.2715C44.3994 61.5365 43.6234 60.2555 44.4454 59.5035C44.4524 59.2035 44.4584 58.9035 44.4634 58.6035C44.9494 58.0555 45.8034 58.2185 46.2834 57.6595C46.2404 56.6215 46.8394 55.8055 47.2304 54.9175C47.5374 54.6075 47.8464 54.3005 48.1534 53.9905C49.3614 52.6255 50.5124 51.2045 51.7874 49.9055C55.7674 45.8465 60.9504 45.2125 65.7094 47.0155C69.5914 48.4855 72.7564 51.8455 74.8024 55.8055C73.0234 58.6055 77.3724 59.5355 76.6304 62.4195C75.4294 67.0825 74.0974 72.2435 71.6264 75.3835C70.3374 77.0205 70.2754 79.0045 69.3004 80.6675Z" fill="#DD9C32"/>
<path d="M44.4456 59.5035C44.4146 60.5175 44.6186 61.6085 43.5286 62.2715C43.5636 61.2595 43.3646 60.1695 44.4456 59.5035Z" fill="#DFA23E"/>
<path d="M46.2836 57.6595C45.8996 58.4045 45.2096 58.5595 44.4636 58.6035C44.8376 57.8405 45.5256 57.6815 46.2836 57.6595Z" fill="#DFA23E"/>
<path d="M51.8205 70.5585C52.0095 70.9625 52.2716 71.3495 52.3746 71.7745C52.7116 73.1615 53.5755 75.1286 51.7275 75.5786C49.8585 76.0336 48.9085 74.3906 49.0345 72.4376C51.0105 73.1546 50.0056 70.8875 50.9266 70.5485C51.2256 70.5535 51.5235 70.5565 51.8205 70.5585Z" fill="#DFA23E"/>
<path d="M74.6306 61.3306C74.6526 65.5986 74.6526 65.5986 71.9836 65.9476C72.7126 64.6766 73.4666 63.3616 74.6306 61.3306Z" fill="#DFA340"/>
<path d="M50.9274 70.5475C50.8254 71.7055 51.2814 73.4235 49.0354 72.4365L49.0184 72.4075C48.7324 71.2595 47.7524 69.8766 49.9764 69.5756C50.2934 69.8996 50.6104 70.2235 50.9274 70.5475Z" fill="#E5B763"/>
<path d="M48.0674 68.6646C47.3794 68.7606 46.6244 68.8286 45.8864 68.9796C45.3264 69.0946 44.8264 69.6426 44.2004 69.1716C46.3214 67.3456 46.3214 67.3456 48.0674 68.6646Z" fill="#DFA23E"/>
<path d="M49.9764 69.5756C48.8724 70.2546 49.0524 71.3665 49.0194 72.4075C47.7124 71.4195 48.2554 69.9886 48.1354 68.7166C48.8764 68.7286 49.5584 68.8706 49.9764 69.5756Z" fill="#DFA23E"/>
<path d="M52.4285 69.1075C52.7615 69.2465 53.1515 69.2925 53.2075 69.4545C53.3645 69.9085 53.0765 70.2946 52.6455 70.3646C52.4515 70.3966 51.7845 71.1105 51.8945 70.1395C51.9365 69.7775 52.2455 69.4455 52.4285 69.1075Z" fill="#DFA23E"/>
<path d="M57.9685 59.7115C57.7455 59.8395 57.4945 60.1055 57.3065 60.0665C56.8285 59.9665 56.6795 59.5615 56.9555 59.1685C57.0655 59.0115 57.5035 58.9125 57.6645 59.0065C57.8425 59.1105 57.8735 59.4655 57.9685 59.7115Z" fill="#E2AA4D"/>
<path d="M50.4176 67.7406C50.1546 67.6096 49.6956 67.5116 49.6676 67.3416C49.5786 66.8126 49.9556 66.4296 50.4576 66.4416C50.9586 66.4546 51.3216 66.8525 51.1936 67.3795C51.1506 67.5525 50.6886 67.6236 50.4176 67.7406Z" fill="#DFA23E"/>
<path d="M56.3645 61.5955C56.5925 61.7095 56.9265 61.7716 57.0145 61.9536C57.0915 62.1126 56.8925 62.4055 56.8165 62.6395C56.5915 62.5105 56.3155 62.4255 56.1535 62.2415C55.9175 61.9735 56.0275 61.7245 56.3645 61.5955Z" fill="#E2AA4D"/>
<path d="M45.9026 75.4515C46.2706 75.2785 46.5065 75.3765 46.5535 75.7465C46.5625 75.8135 46.3505 75.9565 46.2225 75.9845C45.9445 76.0455 45.6566 76.0545 45.3716 76.0855C45.5526 75.8695 45.7336 75.6535 45.9026 75.4515Z" fill="#DFA23E"/>
</svg>
