<svg width="108" height="141" viewBox="0 0 108 141" fill="none" xmlns="http://www.w3.org/2000/svg">
<path d="M55.1309 86.6094C60.2269 86.2404 60.2919 86.2424 61.5588 91.0184C63.4228 98.0454 65.5919 104.991 66.8208 112.188C67.1339 114.02 67.2798 115.812 67.3298 117.639C67.3929 119.925 67.4688 122.16 67.9848 124.453C68.8388 128.247 67.6469 132.094 66.6199 135.667C65.3039 140.242 60.0718 141.389 56.1698 138.724C51.7848 135.73 49.3289 131.659 47.7969 126.619C46.2449 121.515 44.6079 116.511 43.8739 111.168C43.4219 107.878 44.1538 104.513 42.8508 100.729C40.4168 104.429 38.1999 107.799 35.9819 111.169C33.5139 114.92 30.4449 118.054 26.6909 120.556C24.5169 122.005 22.0238 122.59 19.8858 121.514C17.5098 120.319 16.5579 117.944 16.5789 114.971C16.6569 103.568 19.7049 93.0585 25.3779 83.2435C25.6829 82.7155 26.1779 82.2804 26.4019 81.7274C26.8979 80.5054 26.7498 79.4184 25.0908 79.8054C17.7018 81.5254 11.6768 78.4674 5.96585 74.4094C2.84285 72.1904 1.05185 68.9724 0.19985 65.3064C-0.93115 60.4414 2.94585 56.5455 6.60385 54.6795C10.8098 52.5335 15.4219 51.2664 20.0209 50.0934C21.7159 49.6614 23.3119 50.0885 25.3779 50.6745C22.3599 45.5515 19.9269 40.6314 17.0489 35.9104C13.7239 30.4574 11.1369 24.5725 10.4429 18.0495C10.0359 14.2285 13.0558 11.6794 16.6508 12.8924C17.5308 13.1894 18.4208 13.4015 19.0778 14.1055C22.9398 18.2395 27.0958 22.0695 30.8538 26.3335C34.9968 31.0345 38.3358 36.3984 42.9348 40.7014C45.1728 42.7954 46.5648 45.6135 48.8909 47.6615C50.1498 48.7705 49.4869 49.7445 48.3249 50.6405C46.3139 52.1915 43.4999 52.8214 42.5308 55.5914C42.1129 58.6964 39.6988 60.8645 38.7388 63.7135C37.8968 67.5035 37.2639 71.2715 39.6089 74.8075C42.3019 82.0035 48.4209 84.6934 55.1309 86.6094Z" fill="white"/>
<path d="M66.3558 56.4555C66.3508 55.4075 66.6768 54.1195 65.3008 53.7385C63.7178 53.2995 62.8468 51.9165 61.5198 51.2145C59.1978 49.9874 57.2958 47.5155 53.9518 49.6665C52.2028 50.7915 50.5528 49.4145 50.8088 47.2695C52.5088 32.9995 54.6528 18.8345 62.7948 6.45047C64.1548 4.38247 65.8708 2.58045 67.9468 1.27045C72.7028 -1.73055 77.6198 0.826458 77.3878 6.40546C77.1378 12.4085 78.8718 18.2505 78.3938 24.2335C78.3208 25.1485 78.6438 26.1995 78.2998 26.9725C75.3408 33.6235 75.9668 41.4525 71.3478 47.5885C69.6138 49.8925 70.1918 50.8354 73.0948 50.7705C83.3288 50.5434 92.0868 54.5234 100.421 59.9384C103.094 61.6754 104.974 64.0655 106.471 66.7165C108.235 69.8405 108.561 73.0845 105.844 76.0345C103.984 78.0535 102.276 80.2245 100.31 82.1315C98.4248 83.9595 96.1318 84.8885 93.7048 83.0875C92.0168 81.8345 90.2568 82.1814 88.4938 82.2025C88.0718 83.5255 89.0068 84.0615 89.6448 84.5925C93.4058 87.7235 95.7618 92.0935 99.3588 95.3995C101.722 97.5715 102.774 100.764 104.077 103.667C105.496 106.828 103.868 109.499 102.257 112.046C101.566 113.139 100.34 113.638 99.0258 113.347C92.5708 111.917 86.5258 109.437 81.1668 105.57C73.9168 100.339 68.3848 93.3384 62.3058 86.8934C60.2828 84.7484 63.2718 83.6425 62.6638 81.9825C62.5228 79.1875 65.0858 77.8895 66.1338 75.7395C68.5678 70.7495 69.9638 65.7565 67.3038 60.3715C66.7168 59.1835 65.9538 57.9315 66.3558 56.4555Z" fill="white"/>
<path d="M66.3559 56.4555C72.2389 64.3895 70.1289 74.7705 63.8479 80.6425C63.4139 81.0475 63.0579 81.5354 62.6659 81.9844C60.1549 83.5264 57.6439 85.0685 55.1329 86.6105C47.9979 86.7335 42.6689 83.9735 39.8859 77.1035C39.6669 76.5625 39.2519 76.1015 38.9279 75.6035C38.3999 71.3485 36.9049 67.1715 37.8849 62.7925C38.8779 60.0355 40.7609 57.8514 42.5279 55.5934C43.6559 55.1274 45.1429 54.9665 45.8479 54.1395C48.3429 51.2165 51.6219 50.8515 55.0169 50.9955C58.4809 51.1415 61.5399 52.4654 64.0649 54.9514C64.7029 55.5794 65.5849 55.9605 66.3559 56.4555Z" fill="#DD9C32"/>
<path d="M54.5918 128.369C57.0088 128.835 59.0638 129.545 61.0978 128.633C61.5048 128.45 62.0628 128.473 62.2928 128.933C63.0318 130.411 62.7248 131.834 61.9908 133.243C61.2658 134.633 60.2648 134.693 58.9578 134.121C56.5938 133.087 55.1318 131.428 54.5918 128.369Z" fill="#F7F5F4"/>
<path d="M37.8839 62.7915C38.2909 64.6165 36.4779 66.9634 39.4349 68.2534C40.3209 68.6404 39.9829 70.2785 39.4929 71.2025C38.7309 72.6395 38.7159 74.0854 38.9269 75.6024C37.9399 75.2864 37.4259 74.4045 37.3649 73.5755C37.0989 69.9695 35.6859 66.2825 37.8839 62.7915Z" fill="#F3E2C3"/>
</svg>
