<svg width="128" height="131" viewBox="0 0 128 131" fill="none" xmlns="http://www.w3.org/2000/svg">
<path d="M96.7072 61.7444C99.0932 61.6654 101.219 62.6004 103.252 63.6404C109.763 66.9724 116.364 70.1664 122.655 73.8804C127.49 76.7344 128.906 81.5244 127.084 86.0824C126.029 88.7224 124.32 90.4314 121.235 90.2754C118.675 90.1464 116.124 90.5774 113.715 88.9064C112.6 88.1334 110.766 88.4064 109.261 88.1854C104.511 87.4884 100.307 85.2514 95.9452 83.4574C95.1462 83.1284 94.3501 82.7894 93.2251 82.7684C96.2171 87.2744 97.6802 92.4574 100.843 96.7484C104.092 101.155 107.538 105.428 108.447 111.12C109.1 115.208 107.011 118.592 103.051 119.284C102.611 119.361 102.029 119.571 101.733 119.379C98.4382 117.254 94.3081 117.079 91.2661 114.059C86.5181 109.345 82.5451 104.259 79.8401 98.1284C78.6201 95.3634 77.0022 92.7734 75.5742 90.1214C73.9752 90.3364 74.6481 91.5114 74.5811 92.2574C73.9201 99.6164 75.8291 106.866 75.5211 114.227C75.3601 118.089 74.5442 121.78 73.4492 125.435C73.0542 126.752 72.2892 127.899 71.3582 128.966C69.8022 130.747 68.1212 131.252 66.1442 129.798C63.5342 127.878 61.2041 125.726 59.9321 122.602C55.0631 110.637 56.4852 98.6824 59.9152 86.7264C60.0302 86.3254 60.4572 86.0134 60.7382 85.6604C61.4502 84.9184 62.3491 84.6144 63.3461 84.5394C67.8621 84.6524 72.2651 86.1014 76.9191 84.2694C85.4611 80.9064 92.2642 76.1004 94.6432 66.6764C95.7942 65.2284 95.1392 63.0184 96.7072 61.7444Z" fill="white"/>
<path d="M58.8581 82.8604C50.7501 91.3974 39.931 96.2464 30.865 103.46C26.7 106.774 21.9101 108.667 17.1551 110.661C13.1471 112.341 11.4601 111.141 12.0071 106.911C12.4651 103.37 13.1011 99.6764 15.8481 96.9024C16.3831 96.3614 17.05 95.7984 17.268 95.1204C19.459 88.3164 25.585 85.2324 30.471 80.9644C32.628 79.0804 35.4711 77.9864 37.2591 75.0804C35.7171 74.2574 34.103 74.3454 32.82 74.7374C28.74 75.9834 24.5791 75.6904 20.4941 75.4514C14.7301 75.1134 8.91305 76.3134 3.18405 74.6584C0.192053 73.7934 -0.47897 73.1514 0.29703 70.2874C0.77803 68.5114 1.39405 66.8044 2.96005 65.5864C7.53805 62.0274 12.044 58.3744 16.653 54.8564C17.595 54.1374 18.8491 53.8084 19.9851 53.3654C29.4531 49.6714 38.936 49.9104 48.466 53.1854C50.034 53.7244 51.5861 54.5334 53.3451 54.3684C53.8661 54.8404 53.9791 55.4424 53.9081 56.1054C53.8301 56.5194 53.7021 56.9194 53.5481 57.3104C52.3791 60.4784 52.0611 63.6464 53.5501 66.8174C54.4651 72.1584 57.2821 76.7514 59.3731 81.6314C59.3511 82.1024 59.1711 82.5094 58.8581 82.8604Z" fill="white"/>
<path d="M69.9521 42.3734C68.6461 42.2344 68.2661 41.4404 68.0891 40.2044C67.7491 37.8224 68.4951 35.5744 69.1191 33.4434C72.1011 23.2484 76.4811 13.7624 83.8441 5.85043C86.3881 3.11643 89.7681 2.71746 93.0051 2.21646C95.8011 1.78346 98.4931 4.94145 99.4681 8.27145C100.726 12.5724 99.8111 16.7135 99.0571 20.8805C98.3501 24.7815 97.5182 28.6094 95.1432 32.0164C94.0652 33.5634 93.6361 35.6954 93.9081 37.7594C96.8311 37.0954 98.9072 34.9024 101.278 33.3564C104.741 31.0994 108.542 29.4274 111.864 26.9674C113.539 25.7274 115.659 25.8854 117.496 25.1294C118.835 24.5784 119.849 25.3974 120.681 26.3704C122.279 28.2394 122.728 30.4224 122.379 32.8144C121.591 38.2254 119.113 42.8424 116.142 47.3764C112.082 53.5724 105.568 55.0705 99.2522 57.1175C98.3852 57.3985 97.5311 57.7225 96.6711 58.0265C93.5851 57.3365 94.0771 53.3484 91.3761 52.3004C90.3781 51.3854 89.6842 50.2354 88.8992 49.1544C84.9592 45.2094 80.2891 43.1865 74.6381 43.5265C73.0071 43.6235 71.2741 43.7204 69.9521 42.3734Z" fill="white"/>
<path d="M54.2811 52.4804C48.2421 46.0934 42.9441 39.0124 41.1331 30.3884C39.3071 21.6904 37.3201 12.8034 39.4981 3.72539C39.9791 1.72139 41.1671 0.934414 42.7491 0.297414C44.3571 -0.349586 45.7791 0.0814266 46.8851 1.37243C48.2721 2.99243 49.6341 4.63539 50.9351 6.32439C56.0061 12.9084 59.8911 20.1164 61.5541 28.3024C62.2571 31.7604 63.6651 34.9574 64.5311 38.3444C65.0301 40.2994 65.4541 42.1914 65.3321 44.1984C65.3871 44.8644 65.2021 45.4684 64.8761 46.0404C62.5921 48.6444 59.5671 50.2714 56.7541 52.1814C55.9601 52.5254 55.1321 52.5954 54.2811 52.4804Z" fill="white"/>
<path d="M69.9521 42.3734C74.6481 42.5274 79.4492 41.5254 83.9032 44.0674C86.2732 45.4204 88.6911 46.6074 90.0931 49.1024C89.3701 49.4714 88.4881 49.6084 87.9071 49.1574C82.7331 45.1334 76.5281 44.5414 70.3701 43.7644C70.2051 43.5844 70.0422 43.4024 69.8792 43.2194C69.9122 42.9384 69.9371 42.6564 69.9521 42.3734Z" fill="#F4F1F0"/>
<path d="M92.0681 51.5814C94.9951 52.7354 95.0772 55.9194 96.6702 58.0254C96.6822 59.2644 96.6932 60.5044 96.7052 61.7434C96.3262 63.5554 97.5432 65.6884 95.6082 67.1854C94.4712 61.9754 92.5271 56.9464 92.0681 51.5814Z" fill="#F4F1F0"/>
<path d="M64.499 45.3234C64.777 44.9494 65.054 44.5744 65.331 44.1994C66.847 43.8724 68.363 43.5464 69.879 43.2204L70.018 43.3854C69.006 46.3874 66.992 46.5384 64.499 45.3234Z" fill="#F4F1F0"/>
<path d="M54.2811 52.4804C54.7541 51.6874 55.5031 51.5844 56.3241 51.6634C56.3811 53.8184 55.9651 55.6824 53.4861 56.2774C53.4391 55.6404 53.3921 55.0034 53.3451 54.3674C53.6571 53.7384 53.9691 53.1094 54.2811 52.4804Z" fill="#F4F1F0"/>
<path d="M58.8582 82.8604C58.8842 82.5314 58.9101 82.2024 58.9371 81.8734C60.7001 81.7324 61.2541 82.6844 61.1061 84.2714C60.9701 84.4404 60.8331 84.6094 60.6951 84.7794C59.8391 84.3734 59.2222 83.7384 58.8582 82.8604Z" fill="#F4F1F0"/>
<path d="M63.631 85.5954C62.667 85.6174 61.702 85.6404 60.738 85.6624C60.737 85.3674 60.723 85.0724 60.696 84.7794L60.926 84.5415C62.195 83.9495 63.296 83.7884 63.631 85.5954Z" fill="#F4F1F0"/>
<path d="M63.631 85.5954C62.925 84.7394 61.92 84.6534 60.926 84.5424C60.477 83.4934 60.037 82.4384 58.937 81.8744C55.48 77.5614 53.658 72.5444 52.608 67.1944C51.518 63.4264 51.545 59.7494 53.49 56.2254L53.486 56.2774C54.848 54.9954 55.397 53.2134 56.324 51.6634C58.611 48.9854 61.998 47.7244 64.499 45.3234C66.58 45.3654 68.407 44.6834 70.018 43.3854C74.669 43.0784 79.303 42.6794 83.64 45.1144C85.852 46.3564 87.477 48.5324 90.093 49.1024C90.676 49.9894 91.043 51.0474 92.069 51.5814C94.865 56.4164 96.173 61.5894 95.61 67.1864C93.88 76.4554 87.2641 81.0384 79.3411 84.6594C74.1031 87.0524 68.927 86.3524 63.631 85.5954Z" fill="#DD9C32"/>
<path d="M53.49 56.2244C52.573 59.8304 52.344 63.4924 52.608 67.1934C50.762 63.4714 51.088 59.4234 53.49 56.2244Z" fill="#F4F1F0"/>
<path d="M93.907 37.7584L93.6951 38.1434L93.522 37.9704L93.907 37.7584Z" fill="#F4F1F0"/>
<path d="M58.1261 62.3944C58.9051 60.6154 57.8061 58.8114 58.6781 57.5954C59.5721 56.3504 61.2881 55.6834 62.6701 54.8054C63.0481 54.5654 63.5511 54.4344 63.9141 54.8584C64.2371 55.2354 64.1971 55.9784 63.8881 56.0294C61.2871 56.4504 61.8411 58.9384 60.9091 60.4324C60.4351 61.1904 60.1641 62.1144 58.1261 62.3944Z" fill="#E0A644"/>
<path d="M62.5941 76.4364C63.3481 76.5004 64.2101 76.5404 64.5491 77.2954C65.0101 78.3244 63.9721 78.4664 63.3871 78.7644C62.4301 79.2514 61.4221 79.4524 60.1901 78.6474C60.5111 77.4314 63.1921 78.4644 62.5671 76.4634L62.5941 76.4364Z" fill="#E0A645"/>
<path d="M86.9961 55.8094C86.7701 56.4244 86.3421 56.8244 85.6761 56.7974C85.1631 56.7764 84.8452 56.3804 84.9562 55.8954C85.0942 55.2944 85.4881 54.7924 86.1941 54.8724C86.6761 54.9254 86.9321 55.3204 86.9961 55.8094Z" fill="#E2AC50"/>
<path d="M62.5671 76.4635C61.8871 76.3495 61.0971 76.3614 61.1761 75.3334C61.1841 75.2254 61.3591 75.0514 61.4661 75.0434C62.4961 74.9664 62.4781 75.7595 62.5941 76.4375L62.5671 76.4635Z" fill="#E0A645"/>
</svg>
