<svg width="125" height="123" viewBox="0 0 125 123" fill="none" xmlns="http://www.w3.org/2000/svg">
<path d="M73.0814 80.1689C73.3394 84.0459 70.8304 87.0419 69.6694 90.4529C67.7424 96.1129 66.3743 101.794 65.6143 107.745C65.0003 112.55 63.2364 117.237 59.5834 120.8C57.0684 123.253 55.0554 123.155 52.4324 120.694C51.3064 119.638 50.3044 118.501 49.6674 117.059C47.2204 111.522 44.6333 105.97 44.0283 99.9069C43.6843 96.4589 44.7974 92.9899 46.2164 89.7458C47.3874 87.0678 48.9094 84.5909 50.4964 82.1459C50.9544 81.4399 51.9814 80.9198 51.2774 79.5118C49.0224 80.5408 46.3224 81.1078 44.5664 82.7098C40.5424 86.3818 35.0904 86.8778 30.6694 89.6348C28.8854 90.7468 26.2614 90.7679 24.0124 90.8069C21.7254 90.8469 19.1514 87.7968 18.7694 85.1838C18.1844 81.1808 18.1944 81.2549 13.9654 81.8199C12.1524 82.0619 10.2884 81.9049 8.44839 81.9689C5.06739 82.0879 2.29134 80.9388 1.04134 77.6708C-0.207656 74.4068 -0.852628 71.5378 2.18337 68.1218C6.35537 63.4278 11.1784 60.6859 16.9384 58.6649C21.1104 57.2009 25.1593 55.4098 29.4893 54.3558C34.4753 53.1428 39.5274 53.4559 44.5704 53.4069C46.4044 53.3889 48.2393 53.4039 50.2053 53.4039C48.4233 50.8339 44.1334 48.6499 41.6164 48.6829C38.3734 48.7259 35.3124 49.5018 32.1654 50.2078C25.9994 51.5908 20.3384 50.2098 15.8214 45.4108C14.9614 44.4978 14.4194 43.4889 13.9804 42.2999C11.1034 34.5089 15.6834 30.7479 21.6264 28.0939C23.1544 27.4119 24.5604 28.5959 26.1074 28.5809C29.6104 28.5449 33.1234 28.2278 36.7214 28.8868C36.7834 26.7908 36.0254 25.1358 35.1604 23.5768C32.3844 18.5758 31.0214 13.0778 29.5134 7.64484C28.2104 2.94684 30.8333 -0.374124 35.6453 0.033876C41.5973 0.538876 47.1494 2.19088 50.2114 8.00488C51.9654 11.3339 55.1494 13.3859 57.1694 16.5179C61.2004 22.7679 65.9624 28.5508 68.8784 35.4938C69.1684 36.1838 69.7453 36.7508 70.1713 37.3868C70.6524 38.1038 70.8714 39.2639 72.0884 38.8779C72.9064 38.6189 72.9653 37.7328 73.1273 36.9728C73.6683 34.4408 74.4694 31.9439 74.7814 29.3859C75.7204 21.6899 79.3304 14.9268 82.1594 7.90784C83.3794 4.88084 86.0054 2.70585 88.7244 0.995851C92.7974 -1.56715 99.0864 1.62787 100.475 7.08887C102.112 13.5199 102.151 20.0978 101.225 26.6678C100.607 31.0498 99.5533 35.2978 97.3773 39.2098C97.0913 39.7238 97.0064 40.4768 97.6314 40.8638C97.9474 41.0598 98.5253 41.0599 98.8903 40.9119C101.237 39.9599 103.302 38.4068 106.235 39.3088C107.502 39.6988 108.901 38.1228 110.138 37.1838C113.895 34.3318 120.899 35.5178 123.068 39.5618C124.565 42.3538 124.243 45.6219 123.317 48.5109C122.539 50.9369 121.131 53.3409 118.912 54.8239C114.357 57.8699 109.988 61.2799 104.155 61.8129C101.542 62.0519 101.078 63.9499 102.879 66.0609C103.871 67.2239 104.868 68.6569 106.183 69.2169C109.47 70.6169 111.913 73.2038 114.877 75.0458C118.78 77.4708 120.376 82.1929 122.468 86.1979C123.53 88.2309 122.961 90.6569 122.138 92.9039C120.2 98.1959 115.463 100.002 110.83 96.9778C106.628 94.2358 103.565 90.7048 102.37 85.5538C101.35 81.1578 98.2944 78.0109 94.8324 75.2479C93.4424 76.7019 94.7094 77.2369 95.0624 77.8889C97.6124 82.5999 100.514 87.1419 102.758 91.9899C104.863 96.5389 106.47 101.344 107.956 106.142C108.754 108.717 107.835 111.35 106.353 113.563C104.419 116.451 99.0654 117.094 95.5584 114.992C92.0874 112.911 89.5204 109.888 86.9074 106.859C82.4434 101.684 80.3454 95.5928 79.5774 88.9758C79.2154 85.8608 78.1404 83.2139 75.8884 81.0439C76.0704 78.2499 79.0134 77.5548 80.1474 75.4518C80.9514 73.9608 81.7364 72.4799 82.2624 70.8669C82.4024 70.4659 82.5854 70.0859 82.7974 69.7189C84.7394 67.5389 86.4653 65.2019 87.8484 62.6279C88.2494 61.9669 88.5534 61.2678 88.6114 60.4808C88.6104 60.0948 88.6314 59.7118 88.6434 59.3268C88.6014 57.5858 88.9044 55.8159 88.1154 54.1519C87.9014 53.7999 87.7084 53.4429 87.5064 53.0869C84.3394 48.2439 81.7344 42.9299 74.8424 42.2139C72.2164 41.9419 70.0414 42.6539 67.7154 43.3779C66.1764 43.8569 64.8334 45.3639 62.9794 44.3809C62.2474 42.7619 63.3954 41.4288 63.7044 39.9828C64.1414 37.9438 64.1334 35.9979 63.0524 34.1949C58.0924 25.9239 52.8374 17.8799 45.8394 11.1129C43.4944 8.84486 39.5664 9.40688 37.7084 6.33588C37.5344 6.04888 36.8644 6.42583 36.6594 6.87183C36.3734 7.49383 36.4314 8.30587 37.0484 8.46387C42.2084 9.79087 40.3534 13.3159 39.7144 16.5419C38.7404 21.4529 39.4774 22.6949 43.8984 24.8079C47.1904 26.3809 49.8494 29.0458 53.3594 30.3188C54.4934 30.7298 55.3644 31.9669 55.0014 33.3159C54.5584 34.9609 53.1123 34.6279 51.9423 34.3259C49.7543 33.7619 48.0934 34.9719 46.3124 35.8069C44.7504 36.5399 43.8854 35.6418 43.1084 34.4958C43.4074 36.0168 42.8284 37.2189 41.6604 38.1259C40.2404 39.2289 38.6784 39.2549 37.5784 37.8289C36.1844 36.0209 34.7064 36.0989 32.7374 36.6859C30.2074 37.4409 27.7323 35.2838 24.9033 36.6678C21.6003 38.2838 21.0464 39.3739 23.2804 42.7499C26.4444 37.3439 32.4104 36.9349 36.6754 41.8829C37.5104 42.8519 38.3703 43.7809 39.6663 43.8069C43.5483 43.8849 47.2534 44.4329 50.6464 46.5549C51.8164 47.2869 52.9934 46.4348 54.0034 45.6838C55.5384 44.5418 57.1364 43.7018 59.0844 44.7208C60.2324 46.1678 58.6314 47.0399 58.3674 48.1959C57.6734 49.5529 56.6414 50.6018 55.3924 51.4498C53.3744 52.5248 52.9584 54.4439 52.7624 56.4769C52.6924 56.8789 52.5873 57.2709 52.4734 57.6599C52.0344 59.0389 52.0954 60.4588 52.1374 61.8768C52.3764 66.3568 51.7834 71.0289 55.1894 74.7549C56.9754 77.0809 59.7144 78.2588 61.7994 80.2208C64.3014 82.4328 66.5174 80.5549 68.8024 79.7269C69.2034 79.5459 69.6194 79.4149 70.0484 79.3209C71.1754 79.1809 72.2754 79.1549 73.0814 80.1689Z" fill="white"/>
<path d="M83.2494 70.8998C82.4434 75.4768 79.3384 78.3848 75.8874 81.0428C74.9814 80.6598 74.1484 80.0428 73.0834 80.1678C71.8534 80.1378 70.6234 80.1068 69.3934 80.0768C69.3774 78.1808 70.9904 77.8418 72.1974 77.6708C76.0994 77.1178 79.0184 75.3478 80.9214 71.8428C81.3374 71.0748 82.1884 70.5088 83.2494 70.8998Z" fill="#F4F1F0"/>
<path d="M90.6284 82.8848C92.4044 82.8988 94.3134 82.5778 95.2354 84.7278C95.5664 85.0108 95.8094 85.3819 96.1564 85.6489C96.1564 86.2629 96.1564 86.8769 96.1564 87.4919C96.4874 87.7749 96.7314 88.1458 97.0774 88.4128C97.0774 89.0268 97.0774 89.6409 97.0774 90.2549C97.4084 90.5379 97.6514 90.9088 97.9984 91.1758C98.6184 92.7088 99.7684 94.0299 99.8414 95.7819C100.378 96.3959 100.351 97.0098 99.8414 97.6238C99.5344 97.6238 99.2274 97.6238 98.9204 97.6238C98.3064 97.0348 97.6914 97.0478 97.0774 97.6238C96.7704 97.9308 96.4634 98.2379 96.1564 98.5449C95.5764 99.1589 95.5764 99.7729 96.1564 100.388C96.4634 100.695 96.7704 101.002 97.0774 101.309C98.4484 102.44 100.302 101.152 101.684 102.23C101.891 102.435 101.96 102.639 101.891 102.844C101.822 103.049 101.753 103.151 101.684 103.151C101.302 104.047 100.708 104.873 100.763 105.915C100.169 106.386 100.406 107.272 99.8424 107.758C99.8424 108.065 99.8424 108.372 99.8424 108.679C99.4954 108.946 99.2514 109.317 98.9214 109.6C98.6144 109.907 98.3074 110.214 98.0004 110.521C97.6934 110.836 97.3864 110.836 97.0794 110.521C95.8544 110.007 95.2394 109.086 95.2364 107.757C94.9054 107.474 94.6624 107.103 94.3154 106.836C94.3004 104.794 91.9044 103.545 92.4724 101.309C92.1594 101.008 91.8524 100.7 91.5514 100.388C89.2614 98.7929 86.9274 97.3068 86.4174 94.1498C86.2664 93.2138 85.1664 92.5329 84.1804 92.0969C83.9734 91.8919 83.9044 91.6879 83.9734 91.4828C84.0424 91.2778 84.1114 91.1758 84.1804 91.1758C84.1804 90.8688 84.1804 90.5619 84.1804 90.2549C84.5274 89.9879 84.7714 89.6169 85.1014 89.3339C85.1014 89.0269 85.1014 88.7198 85.1014 88.4128C85.4484 88.1458 85.6924 87.7749 86.0224 87.4919C86.1144 84.9009 85.0234 83.2549 82.3374 82.8859C82.0614 82.5479 81.7234 82.2718 81.4164 81.9648C81.1094 81.6578 80.8334 81.3189 80.4954 81.0439C80.4954 80.7369 80.4954 80.4299 80.4954 80.1229C80.8344 79.8469 81.1094 79.5088 81.4164 79.2018C81.7324 78.9038 82.0394 78.5969 82.3374 78.2809C82.6614 77.9909 82.9364 77.6519 83.2584 77.3599C83.2584 77.0529 83.2584 76.7458 83.2584 76.4388C84.1334 75.7068 83.3644 74.4269 84.1794 73.6749C84.4954 73.3759 84.8024 73.0698 85.1004 72.7538C85.4164 72.4558 85.7234 72.1488 86.0214 71.8328C86.3374 71.5348 86.6444 71.2269 86.9424 70.9119C87.2494 70.6049 87.5884 70.3288 87.8634 69.9908C89.7314 69.9218 90.7374 68.7049 91.5484 67.2269C91.8954 66.9599 92.1394 66.5888 92.4694 66.3058C92.4694 65.9988 92.4694 65.6918 92.4694 65.3848C92.8164 65.1178 93.0604 64.7469 93.3904 64.4639C93.3904 64.1569 93.3904 63.8498 93.3904 63.5428C93.0594 63.2598 92.8154 62.8888 92.4694 62.6218C92.4694 62.0078 92.4694 61.3938 92.4694 60.7798C91.3844 59.3998 92.6814 57.5438 91.5484 56.1738C90.5704 55.1128 91.6604 53.5358 90.6274 52.4888C90.6274 52.1818 90.6274 51.8749 90.6274 51.5679C90.2964 51.2849 90.0524 50.9138 89.7064 50.6469C89.7064 50.3399 89.7064 50.0328 89.7064 49.7258C89.3754 49.4428 89.1324 49.0719 88.7854 48.8049C88.7854 48.4979 88.7854 48.1908 88.7854 47.8839C88.4544 47.6008 88.2104 47.2298 87.8644 46.9628C87.8624 45.6338 87.2464 44.7139 86.0214 44.1989C85.7534 43.8519 85.3834 43.6078 85.1004 43.2778C84.7934 43.2778 84.4864 43.2778 84.1794 43.2778C83.9034 42.9398 83.5654 42.6639 83.2584 42.3569C82.5964 41.1289 82.5854 39.8999 83.2584 38.6719C83.2584 38.3649 83.2584 38.0579 83.2584 37.7509C83.0294 37.5459 82.9534 37.3418 83.0294 37.1368C83.1054 36.9318 83.1824 36.8298 83.2584 36.8298C83.8724 36.2158 84.4864 35.6019 85.1014 34.9879C85.4484 34.7209 85.6924 34.3498 86.0224 34.0668C86.1674 32.7258 85.7294 31.5298 85.1014 30.3818C84.7794 30.0898 84.5044 29.7499 84.1804 29.4609C83.2594 28.7759 82.3374 28.7759 81.4164 29.4609C81.0924 29.7509 80.8164 30.0898 80.4954 30.3818C80.4954 31.3028 80.4954 32.2239 80.4954 33.1459C80.1884 33.4299 79.8814 33.4299 79.5744 33.1459C78.8154 33.1279 78.1274 32.9689 77.7314 32.2249C77.5024 32.0199 77.4264 31.8158 77.5024 31.6108C77.5784 31.4058 77.6544 31.3038 77.7314 31.3038C77.7314 30.6898 77.7314 30.0759 77.7314 29.4609C78.3254 28.9899 78.0884 28.1038 78.6524 27.6188C78.6524 27.3118 78.6524 27.0049 78.6524 26.6979C79.2464 26.2269 79.0094 25.3408 79.5734 24.8558C79.4284 23.5148 79.8654 22.3188 80.4944 21.1708C80.8414 20.9038 81.0854 20.5329 81.4154 20.2499C81.4154 19.9429 81.4154 19.6359 81.4154 19.3289C82.0294 18.8189 82.6434 18.7919 83.2584 19.3289C84.4834 18.8149 85.0984 17.8939 85.1014 16.5649C85.4484 16.2979 85.6924 15.9269 86.0224 15.6439C86.0224 14.7229 86.0224 13.8019 86.0224 12.8799C85.6914 12.5969 85.4484 12.2259 85.1014 11.9589C85.1014 11.3449 85.1014 10.7308 85.1014 10.1158C85.4484 9.84884 85.6924 9.47789 86.0224 9.19489C86.4184 8.45089 87.1064 8.29086 87.8654 8.27386C88.3364 8.86786 89.2224 8.63089 89.7084 9.19489C90.4364 9.70089 90.5154 10.3318 90.1444 11.1088C89.3354 12.7978 89.9804 13.9468 91.5514 14.7228C91.8354 14.3918 92.2054 14.1479 92.4724 13.8019C92.7794 13.8019 93.0864 13.8019 93.3934 13.8019C93.6604 14.1489 94.0314 14.3928 94.3144 14.7228C95.2104 15.1038 96.0364 15.6979 97.0784 15.6439C97.2424 15.5199 97.4054 15.3958 97.5694 15.2698C97.7594 15.3478 97.9484 15.4269 98.1384 15.5059C98.3694 15.8949 98.3224 16.2479 97.9994 16.5649C97.6924 16.8719 97.3854 17.1788 97.0784 17.4858C96.7314 17.7528 96.4874 18.1239 96.1574 18.4069C96.1574 19.3279 96.1574 20.2498 96.1574 21.1708C95.8104 21.4378 95.5664 21.8089 95.2364 22.0919C95.2364 22.3989 95.2364 22.7059 95.2364 23.0129C94.6424 23.4839 94.8794 24.3699 94.3154 24.8549C94.3154 25.1619 94.3154 25.4689 94.3154 25.7759C94.0684 25.9809 93.9864 26.1848 94.0684 26.3898C94.1504 26.5948 94.2324 26.6968 94.3154 26.6968C94.3154 27.0038 94.3154 27.3109 94.3154 27.6179C94.6374 27.9099 94.9124 28.2489 95.2364 28.5389C95.7254 29.0619 96.7654 29.3098 96.1574 30.3818C95.8504 30.6888 95.5434 30.9959 95.2364 31.3029C94.8894 31.5699 94.6454 31.9409 94.3154 32.2239C94.3154 33.7589 94.3154 35.2948 94.3154 36.8298C93.9684 37.0968 93.7244 37.4679 93.3944 37.7509C93.7094 39.6969 92.7634 41.4328 92.4734 43.2778C92.1264 43.5448 91.8824 43.9159 91.5524 44.1989C91.5524 44.5059 91.5524 44.8129 91.5524 45.1199C91.8744 45.4119 92.1494 45.7508 92.4734 46.0408C93.0874 46.5988 93.7024 46.6308 94.3164 46.0408C97.3874 44.5778 100.458 45.4758 103.53 46.0408C103.822 45.7188 104.162 45.4439 104.451 45.1199C104.775 44.8299 105.05 44.4909 105.372 44.1989C106.068 42.5199 107.478 42.2699 109.057 42.3569C109.341 42.0259 109.711 41.7819 109.978 41.4359C111.373 41.3769 112.561 41.5458 112.866 43.2908C113.022 44.1828 113.757 44.7468 114.584 45.1208C114.868 44.7898 115.238 44.5458 115.505 44.1998C119.82 42.7648 120.194 42.9519 121.033 46.9639C120.686 47.2309 120.442 47.6018 120.112 47.8848C119.805 48.4988 119.498 49.1129 119.191 49.7269C118.862 50.0119 118.555 50.3188 118.27 50.6478C117.963 50.6478 117.656 50.6478 117.349 50.6478C117.065 50.9788 116.695 51.2228 116.428 51.5688C116.121 51.5688 115.814 51.5688 115.507 51.5688C115.215 51.8908 114.875 52.1659 114.586 52.4899C114.262 52.7799 113.987 53.1188 113.665 53.4108C112.854 54.8888 111.847 56.1049 109.98 56.1749C109.366 56.7069 108.751 56.6919 108.137 56.1749C108.137 55.8679 108.137 55.5608 108.137 55.2538C108.511 55.0138 108.716 54.6048 109.058 54.3328C108.704 51.4078 108.543 51.3008 106.294 52.4908C105.947 52.7578 105.703 53.1289 105.373 53.4119C105.373 54.0259 105.373 54.6398 105.373 55.2538C105.044 55.5388 104.737 55.8459 104.452 56.1749C104.145 56.1749 103.838 56.1749 103.531 56.1749C103.247 56.5059 102.877 56.7498 102.61 57.0958C101.381 57.0958 100.153 57.0958 98.9254 57.0958C98.6234 57.4088 98.3164 57.7158 98.0044 58.0168C98.0044 58.3238 98.0044 58.6309 98.0044 58.9379C97.6574 59.2049 97.4134 59.5758 97.0834 59.8588C97.1384 60.9008 96.5444 61.7259 96.1624 62.6229C95.8154 62.8899 95.5714 63.2609 95.2414 63.5439C95.2414 63.8509 95.2414 64.1578 95.2414 64.4648C95.5724 64.7478 95.8154 65.1189 96.1624 65.3859C96.6774 66.6099 97.5974 67.2258 98.9264 67.2278C99.2114 67.5568 99.5184 67.8639 99.8474 68.1489C100.154 68.4559 100.461 68.7629 100.768 69.0699C101.044 69.4079 101.382 69.6838 101.689 69.9908C101.996 70.2978 102.272 70.6369 102.61 70.9119C102.61 71.2189 102.61 71.5258 102.61 71.8328C102.943 72.1138 103.182 72.4888 103.531 72.7538C103.647 72.9178 103.763 73.0818 103.88 73.2468C103.804 73.4328 103.727 73.6189 103.65 73.8058C103.268 74.0478 102.922 73.9909 102.61 73.6749C100.899 72.5749 98.9794 72.7348 97.0824 72.7538C96.8144 72.4068 96.4444 72.1628 96.1614 71.8328C93.9754 72.0668 91.0834 70.8909 90.6334 74.5969C90.2864 74.8639 90.0424 75.2349 89.7124 75.5179C89.7124 76.7459 89.7124 77.9749 89.7124 79.2029C89.0134 80.1239 89.0344 81.0459 89.7124 81.9669C89.9964 82.2879 90.3364 82.5628 90.6284 82.8848Z" fill="white"/>
<path d="M83.2493 70.8999C80.2313 75.8869 76.0544 79.0859 70.0484 79.5029C69.8174 79.5189 69.6114 79.8779 69.3934 80.0769L69.4174 80.0659C66.7234 80.7719 64.1604 82.8929 61.2094 80.8279C59.1754 78.8849 56.2064 78.1369 54.5924 75.6569C54.1814 74.6089 54.1884 73.5269 54.3254 72.4379C55.3064 70.9839 53.1924 72.3359 53.4714 71.5029C53.0694 70.4479 53.8664 69.3498 53.4374 68.3588C49.7034 59.7368 53.4893 53.2179 59.2703 47.2349C59.5663 46.9179 59.9003 46.6489 60.2623 46.4119C61.2373 45.9179 62.1573 45.3209 63.1503 44.8499C66.6643 43.9939 69.5544 41.4009 73.4764 41.5679C81.2404 41.8979 84.7614 47.2059 87.7844 53.2319C89.8134 57.6409 88.9124 61.6428 86.4014 65.6138C85.4374 67.1378 83.9854 68.3449 83.4324 70.1279C83.3034 70.3699 83.2433 70.6269 83.2493 70.8999Z" fill="#DD9C32"/>
<path d="M59.3115 45.1188C57.1875 44.8728 55.3535 45.4009 54.0245 47.1719C52.7115 48.9219 51.0965 48.8648 49.6605 47.5978C47.0145 45.2638 43.9395 44.8688 40.6405 45.1158C38.0725 45.3078 36.0855 44.5528 35.3365 41.8368C34.9675 40.4988 34.1555 39.5069 32.7685 39.6899C30.8085 39.9499 28.9185 39.9479 26.9465 39.7289C25.2155 39.5369 25.1485 41.0458 25.3505 42.3328C25.4915 43.2348 25.9485 44.1649 24.7885 44.7059C23.7885 45.1719 23.0055 44.4759 22.2485 44.0399C21.0405 43.3439 19.6325 39.8599 20.3565 38.8209C21.4425 37.2629 22.5825 34.8598 24.7545 35.4368C26.9815 36.0288 27.7115 34.2849 29.4435 33.6039C29.8945 36.3209 31.0545 36.7319 33.4435 35.2609C34.6665 34.5079 36.8925 33.7208 37.6915 36.5868C37.9965 37.6798 39.1105 38.6918 40.6085 37.8008C41.8945 37.0348 42.6465 35.9358 42.2775 34.3998C42.1425 33.8378 41.6235 33.3779 41.3415 32.8389C41.1125 32.4009 41.1505 31.9248 41.6225 31.6578C42.2105 31.3248 42.8045 31.3728 43.2365 31.9388C44.0205 32.9658 43.1895 35.2099 45.0255 35.2009C46.2085 35.1949 47.5625 34.1338 48.5305 33.2178C50.6055 31.2538 52.1595 34.1198 54.3335 33.5488C54.2815 31.7898 53.2155 30.7608 51.6905 30.5218C49.0955 30.1158 47.1895 28.7098 45.5555 26.8588C44.8655 26.0768 44.1215 25.7548 43.1675 25.7778C41.6225 25.8148 40.8835 24.7469 39.8085 23.8469C37.0495 21.5399 38.0085 18.8548 38.4255 16.1758C38.5885 15.1318 38.9805 14.1038 39.3955 13.1218C40.1835 11.2568 39.8535 10.1548 37.6125 10.1028C36.3475 10.0738 34.9625 9.92887 34.7875 8.38287C34.6265 6.96087 35.4985 5.66487 36.3885 4.68487C37.3525 3.62187 38.6315 4.56184 39.0845 5.34484C40.1075 7.11284 40.9115 8.76284 43.4575 7.99883C43.8395 7.88383 44.6005 8.48288 44.9625 8.93188C47.4885 12.0619 51.5285 13.7399 53.1665 17.7759C53.7115 19.1179 55.0325 20.1718 56.0805 21.2798C59.3565 24.7448 61.0695 29.2238 63.7505 33.0898C66.2345 36.6718 65.5625 40.6219 62.9885 44.1559C62.8005 44.4619 62.5465 44.6968 62.2295 44.8658C61.5745 45.1348 60.9035 45.3549 60.2125 45.5179C59.8365 45.5569 59.5325 45.4298 59.3115 45.1188Z" fill="white"/>
<path d="M119.19 89.3338C119.276 90.9128 119.027 92.3228 117.347 93.0188C117.063 93.3498 116.693 93.5939 116.426 93.9399C116.119 93.9399 115.812 93.9399 115.505 93.9399C114.891 94.4689 114.276 94.4689 113.662 93.9399C113.355 93.9399 113.048 93.9399 112.741 93.9399C112.465 93.6019 112.127 93.3258 111.82 93.0188C111.521 92.7028 111.214 92.3958 110.899 92.0978C110.364 91.5978 110.559 90.7328 109.978 90.2558C109.978 89.9488 109.978 89.6418 109.978 89.3348C109.647 89.0518 109.403 88.6809 109.057 88.4139C108.18 86.9919 108.036 85.4248 108.136 83.8078C108.465 83.5228 108.772 83.2158 109.057 82.8868C109.364 82.8868 109.671 82.8868 109.978 82.8868C110.27 82.5648 110.61 82.2899 110.899 81.9659C111.223 81.6759 111.499 81.3368 111.82 81.0448C111.82 80.7378 111.82 80.4308 111.82 80.1238C112.127 79.8398 112.434 79.8398 112.741 80.1238C113.048 80.1238 113.355 80.1238 113.662 80.1238C114.18 80.7378 114.18 81.3519 113.662 81.9659C112.984 82.8869 112.963 83.8078 113.662 84.7298C114.044 85.6258 114.638 86.4518 114.583 87.4938C114.905 87.7858 115.18 88.1248 115.504 88.4148C115.794 88.7388 116.133 89.0139 116.425 89.3359C116.732 89.3359 117.039 89.3359 117.346 89.3359C117.961 88.7969 118.576 88.8238 119.19 89.3338Z" fill="white"/>
<path d="M60.1133 46.8369C60.1463 47.6329 59.9703 48.2979 59.2453 48.7969C54.0223 52.3919 53.9343 58.3449 52.4873 63.6639C52.3833 64.0479 52.4963 64.7479 52.7653 64.9379C55.3103 66.7319 54.4543 69.4338 54.7013 71.8378L54.6873 71.8239C55.5913 73.1249 55.5003 74.3999 54.5913 75.6559C50.7883 71.7219 50.8823 66.7988 51.0843 61.8478C52.0863 60.4068 50.8023 58.5149 52.0193 57.1169L51.9933 57.1589C52.3963 54.7749 52.7933 52.3879 54.7483 50.6619C55.8543 49.9229 56.7603 48.9908 57.4553 47.8558C58.1543 47.0288 58.7833 46.0189 60.1133 46.8369Z" fill="#E2AA4D"/>
<path d="M60.1133 46.8368C59.2273 47.1758 58.3412 47.5159 57.4552 47.8549C57.3032 46.4199 58.7473 46.0678 59.3113 45.1188C59.6183 45.1148 59.9242 45.1068 60.2312 45.0958C60.7232 44.5508 61.5963 44.7849 62.0663 44.1959C62.3733 44.1839 62.6803 44.1709 62.9873 44.1589C63.7673 44.1219 64.4413 43.8449 65.1153 43.4299C69.1883 40.9169 73.5122 40.3489 78.1372 41.6819C82.6412 42.9799 84.5003 47.0108 87.1313 50.2228C87.8733 51.1288 88.1432 52.4239 88.6292 53.5399C88.0212 53.9519 87.4793 53.9609 87.0493 53.2819C85.7683 49.1439 82.4533 46.5008 79.4453 43.8688C76.8403 41.5898 73.1403 41.7439 69.8883 42.6619C67.4613 43.3479 65.2422 44.7748 62.9312 45.8718C62.2622 46.9458 60.9202 46.1258 60.1322 46.8658L60.1133 46.8368Z" fill="#F4F1F0"/>
<path d="M87.0494 53.2809C87.5764 53.3659 88.1044 53.4518 88.6304 53.5378L88.6793 53.4548C90.0243 55.4788 88.5224 57.9198 89.6364 59.9778C89.5644 60.1838 89.5543 60.3929 89.6063 60.6049C89.2023 61.2209 89.3503 62.0609 88.7883 62.6129C87.3513 65.3669 86.3073 68.4019 83.4293 70.1279C83.2133 67.9129 84.8954 66.4938 85.9234 64.9498C88.4424 61.1618 88.3284 57.3269 87.0494 53.2809Z" fill="#EAC683"/>
<path d="M104.448 73.6729C105.926 74.4079 107.622 74.9949 107.07 77.2149C106.598 79.1119 105.086 79.2129 103.527 79.1999C103.017 78.5859 102.99 77.9719 103.527 77.3579C103.527 76.4369 103.527 75.5159 103.527 74.5939C103.293 74.3889 103.215 74.1849 103.293 73.9799C103.371 73.7749 103.449 73.6729 103.527 73.6729C103.834 73.3519 104.141 73.3519 104.448 73.6729Z" fill="white"/>
<path d="M61.2085 80.8279C64.0005 81.1789 66.6674 80.1849 69.4164 80.0659C65.2394 83.0959 64.1175 83.1999 61.2085 80.8279Z" fill="#F4F1F0"/>
<path d="M54.7473 50.6619C53.8293 52.8279 52.9103 54.9929 51.9923 57.1589C51.7363 54.4949 51.7073 51.9279 54.7473 50.6619Z" fill="#F4F1F0"/>
<path d="M97.9993 14.7148C98.3063 14.1008 98.6134 13.4868 98.9204 12.8718C99.5344 12.3548 100.149 12.3548 100.763 12.8718C100.763 13.7928 100.763 14.7149 100.763 15.6359C99.8424 16.2529 98.9203 16.2759 97.9993 15.6359C97.7653 15.4309 97.6873 15.2268 97.7653 15.0218C97.8423 14.8168 97.9203 14.7148 97.9993 14.7148Z" fill="white"/>
<path d="M29.7812 44.0039C29.7192 44.6929 29.8132 45.5949 28.7852 45.6879C28.1492 45.7449 27.5772 45.2659 27.6232 44.6009C27.6792 43.7889 28.2992 43.2359 29.0752 43.0679C29.6782 42.9369 29.7382 43.4949 29.7812 44.0039Z" fill="white"/>
<path d="M89.6364 59.9778C88.2784 57.9558 89.1814 55.6028 88.6804 53.4548C90.5964 55.3948 89.4024 57.7908 89.6364 59.9778Z" fill="#F4F1F0"/>
<path d="M101.684 102.231C100.132 102.005 98.3664 102.85 97.0774 101.31C98.6294 101.535 100.395 100.69 101.684 102.231Z" fill="white"/>
<path d="M91.5493 56.1699C93.0893 57.4589 92.2443 59.2249 92.4703 60.7759C90.9303 59.4869 91.7753 57.7209 91.5493 56.1699Z" fill="white"/>
<path d="M52.0193 57.1169C51.8773 58.7269 52.2633 60.4418 51.0843 61.8478C51.1903 60.2298 50.2963 58.4149 52.0193 57.1169Z" fill="#F4F1F0"/>
<path d="M90.6284 52.4849C91.9804 53.4519 91.4174 54.8979 91.5494 56.1699C90.1974 55.2019 90.7604 53.7569 90.6284 52.4849Z" fill="white"/>
<path d="M83.2574 38.6658C83.2574 39.8938 83.2574 41.1228 83.2574 42.3508C81.9484 41.1228 81.9484 39.8948 83.2574 38.6658Z" fill="white"/>
<path d="M92.4703 6.42284C91.6583 5.82484 91.2624 5.04785 91.9924 4.21685C92.4684 3.67485 93.0254 4.04786 93.3914 4.58086C93.3744 5.33986 93.0183 5.92984 92.4703 6.42284Z" fill="white"/>
<path d="M97.9993 15.6359C98.9203 15.6359 99.8423 15.6359 100.763 15.6359C100.102 16.7219 99.0123 16.5239 97.9993 16.5569C97.9993 16.2499 97.9993 15.9429 97.9993 15.6359Z" fill="white"/>
<path d="M108.134 56.1699C108.748 56.1699 109.363 56.1699 109.977 56.1699C109.489 56.9579 108.828 57.2618 107.955 56.8428C107.915 56.8238 108.069 56.4029 108.134 56.1699Z" fill="white"/>
<path d="M113.662 84.7278C112.476 83.8068 112.476 82.8849 113.662 81.9639C113.662 82.8849 113.662 83.8058 113.662 84.7278Z" fill="white"/>
<path d="M81.4143 29.4539C82.3353 28.2689 83.2573 28.2689 84.1783 29.4539C83.2573 29.4539 82.3363 29.4539 81.4143 29.4539Z" fill="white"/>
<path d="M96.1564 30.3749C95.8494 29.7609 95.5424 29.1469 95.2354 28.5319C96.4054 28.7149 97.5574 28.9069 96.1564 30.3749Z" fill="white"/>
<path d="M84.1783 73.6729C84.1453 74.6859 84.3433 75.7748 83.2573 76.4368C83.2903 75.4238 83.0923 74.3339 84.1783 73.6729Z" fill="white"/>
<path d="M92.4703 6.42285C92.4883 5.66385 92.6474 4.97587 93.3914 4.58087C93.6984 4.88787 94.0054 5.19483 94.3124 5.50183C93.9684 5.77183 93.6614 6.07885 93.3914 6.42285C93.0854 6.42285 92.7783 6.42285 92.4703 6.42285Z" fill="white"/>
<path d="M89.7064 81.9639C88.5214 81.0429 88.5214 80.1218 89.7064 79.1998C89.7064 80.1208 89.7064 81.0429 89.7064 81.9639Z" fill="white"/>
<path d="M89.7063 9.18683C88.9473 9.16983 88.2593 9.00987 87.8633 8.26587C88.6233 8.28287 89.3113 8.44283 89.7063 9.18683Z" fill="white"/>
<path d="M113.662 93.9399C114.276 93.9399 114.891 93.9399 115.505 93.9399C114.89 94.8839 114.276 94.8839 113.662 93.9399Z" fill="white"/>
<path d="M99.8413 97.6249C99.8413 97.0109 99.8413 96.3968 99.8413 95.7828C100.785 96.3958 100.785 97.0099 99.8413 97.6249Z" fill="white"/>
<path d="M97.0774 97.6249C97.6914 96.6809 98.3064 96.6809 98.9204 97.6249C98.3064 97.6249 97.6914 97.6249 97.0774 97.6249Z" fill="white"/>
<path d="M96.1564 100.388C95.2124 99.7739 95.2124 99.1599 96.1564 98.5449C96.1564 99.1599 96.1564 99.7739 96.1564 100.388Z" fill="white"/>
<path d="M94.3134 46.0358C93.6994 46.9798 93.0843 46.9798 92.4703 46.0358C93.0853 46.0358 93.6994 46.0358 94.3134 46.0358Z" fill="white"/>
<path d="M109.976 90.2549C110.72 90.6509 110.879 91.3389 110.897 92.0969C110.153 91.7019 109.994 91.0139 109.976 90.2549Z" fill="white"/>
<path d="M99.8413 107.758C99.8593 106.999 100.018 106.311 100.762 105.915C100.745 106.674 100.586 107.363 99.8413 107.758Z" fill="white"/>
<path d="M100.763 12.8718C100.149 12.8718 99.5344 12.8718 98.9204 12.8718C99.5344 11.9278 100.149 11.9278 100.763 12.8718Z" fill="white"/>
<path d="M119.19 89.3339C118.576 89.3339 117.961 89.3339 117.347 89.3339C117.961 88.3889 118.576 88.3889 119.19 89.3339Z" fill="white"/>
<path d="M88.7884 62.6119C88.7534 61.8179 88.9804 61.1308 89.6064 60.6058C89.7064 61.4258 89.6054 62.1649 88.7884 62.6119Z" fill="#F4F1F0"/>
<path d="M83.2573 19.3209C82.6433 19.3209 82.0293 19.3209 81.4143 19.3209C82.0293 18.3759 82.6433 18.3759 83.2573 19.3209Z" fill="white"/>
<path d="M94.3134 24.8478C94.3314 24.0888 94.4904 23.4009 95.2344 23.0059C95.2174 23.7639 95.0574 24.4518 94.3134 24.8478Z" fill="white"/>
<path d="M79.5723 24.8478C79.5543 25.6068 79.3954 26.2949 78.6514 26.6899C78.6684 25.9319 78.8273 25.2428 79.5723 24.8478Z" fill="white"/>
<path d="M78.6505 27.6119C78.6325 28.3709 78.4735 29.0589 77.7295 29.4539C77.7475 28.6949 77.9065 28.0069 78.6505 27.6119Z" fill="white"/>
<path d="M103.527 77.3578C103.527 77.9718 103.527 78.5858 103.527 79.1998C102.583 78.5858 102.583 77.9718 103.527 77.3578Z" fill="white"/>
<path d="M113.662 81.9639C113.662 81.3499 113.662 80.7358 113.662 80.1218C114.605 80.7348 114.605 81.3499 113.662 81.9639Z" fill="white"/>
<path d="M81.4143 81.9639C81.7213 82.2709 82.0283 82.5778 82.3353 82.8848C82.0293 82.5778 81.7213 82.2709 81.4143 81.9639Z" fill="white"/>
<path d="M112.74 80.1209C112.433 80.1209 112.126 80.1209 111.819 80.1209C112.126 79.4909 112.433 79.4909 112.74 80.1209Z" fill="white"/>
<path d="M82.3363 78.2789C82.0293 78.5859 81.7223 78.8928 81.4153 79.1998C81.7213 78.8928 82.0293 78.5859 82.3363 78.2789Z" fill="white"/>
<path d="M95.2354 28.5328C94.9284 28.2258 94.6213 27.9189 94.3143 27.6119C94.6203 27.9189 94.9284 28.2258 95.2354 28.5328Z" fill="white"/>
<path d="M94.3133 26.6899C93.6833 26.3829 93.6833 26.0759 94.3133 25.7689C94.3133 26.0759 94.3133 26.3829 94.3133 26.6899Z" fill="white"/>
<path d="M89.7063 75.5148C90.0133 75.2078 90.3203 74.9009 90.6273 74.5939C90.3213 74.9009 90.0143 75.2078 89.7063 75.5148Z" fill="white"/>
<path d="M84.1783 91.1758C84.1783 91.4828 84.1783 91.7899 84.1783 92.0969C83.5483 91.7899 83.5483 91.4828 84.1783 91.1758Z" fill="white"/>
<path d="M103.527 73.6729C103.527 73.9799 103.527 74.2869 103.527 74.5939C103.22 74.2869 102.913 73.9799 102.606 73.6729C102.912 73.6729 103.22 73.6729 103.527 73.6729Z" fill="white"/>
<path d="M104.448 73.6729C104.141 73.6729 103.834 73.6729 103.527 73.6729C103.527 73.3659 103.527 73.0588 103.527 72.7518C103.834 73.0588 104.141 73.3659 104.448 73.6729Z" fill="white"/>
<path d="M109.055 88.4119C109.362 88.7189 109.669 89.0258 109.976 89.3328C109.669 89.0268 109.362 88.7199 109.055 88.4119Z" fill="white"/>
<path d="M84.1783 29.4539C84.4853 29.7609 84.7924 30.0679 85.0994 30.3749C84.7934 30.0679 84.4853 29.7609 84.1783 29.4539Z" fill="white"/>
<path d="M116.426 89.3339C116.119 89.0269 115.812 88.7198 115.505 88.4128C115.811 88.7188 116.118 89.0269 116.426 89.3339Z" fill="white"/>
<path d="M85.1003 72.7518C84.7933 73.0588 84.4863 73.3659 84.1793 73.6729C84.4853 73.3659 84.7923 73.0588 85.1003 72.7518Z" fill="white"/>
<path d="M103.527 72.7518C103.22 72.4448 102.913 72.1379 102.606 71.8309C102.912 72.1379 103.22 72.4448 103.527 72.7518Z" fill="white"/>
<path d="M96.1564 71.8298C96.4634 72.1368 96.7703 72.4439 97.0773 72.7509C96.7703 72.4449 96.4634 72.1368 96.1564 71.8298Z" fill="white"/>
<path d="M86.0214 71.8298C85.7144 72.1368 85.4073 72.4439 85.1003 72.7509C85.4073 72.4449 85.7144 72.1378 86.0214 71.8298Z" fill="white"/>
<path d="M77.7293 31.2969C77.7293 31.6039 77.7293 31.9108 77.7293 32.2178C77.0993 31.9108 77.0993 31.6039 77.7293 31.2969Z" fill="white"/>
<path d="M79.5723 33.1389C79.8793 33.1389 80.1863 33.1389 80.4933 33.1389C80.1863 33.7689 79.8793 33.7689 79.5723 33.1389Z" fill="white"/>
<path d="M92.4703 62.6179C92.7773 62.9249 93.0844 63.2319 93.3914 63.5389C93.0854 63.2319 92.7783 62.9249 92.4703 62.6179Z" fill="white"/>
<path d="M102.605 57.0909C102.912 56.7839 103.219 56.4769 103.526 56.1699C103.22 56.4769 102.912 56.7839 102.605 57.0909Z" fill="white"/>
<path d="M97.9993 14.7148C97.9993 15.0218 97.9993 15.3289 97.9993 15.6359C97.6923 15.6359 97.3854 15.6359 97.0784 15.6359C97.3844 15.3289 97.6913 15.0218 97.9993 14.7148Z" fill="white"/>
<path d="M83.2574 36.8239C83.2574 37.1309 83.2574 37.4379 83.2574 37.7449C82.6274 37.4379 82.6274 37.1309 83.2574 36.8239Z" fill="white"/>
<path d="M104.448 56.1699C104.755 55.8629 105.062 55.5558 105.369 55.2488C105.062 55.5548 104.755 55.8629 104.448 56.1699Z" fill="white"/>
<path d="M94.3134 14.7148C94.0064 14.4078 93.6993 14.1009 93.3923 13.7939C93.6993 14.0999 94.0064 14.4068 94.3134 14.7148Z" fill="white"/>
<path d="M105.369 53.4059C105.676 53.0989 105.983 52.7919 106.29 52.4849C105.984 52.7919 105.677 53.0989 105.369 53.4059Z" fill="white"/>
<path d="M85.1003 89.3339C84.7933 89.6409 84.4863 89.9479 84.1793 90.2549C84.4853 89.9479 84.7923 89.6409 85.1003 89.3339Z" fill="white"/>
<path d="M89.7063 50.6418C90.0133 50.9488 90.3203 51.2559 90.6273 51.5629C90.3213 51.2559 90.0143 50.9488 89.7063 50.6418Z" fill="white"/>
<path d="M97.0774 110.522C97.3844 110.522 97.6914 110.522 97.9984 110.522C97.6914 111.152 97.3844 111.152 97.0774 110.522Z" fill="white"/>
<path d="M118.268 50.6418C118.575 50.3348 118.882 50.0278 119.189 49.7208C118.883 50.0278 118.576 50.3348 118.268 50.6418Z" fill="white"/>
<path d="M97.9993 91.1758C97.6923 90.8688 97.3854 90.5619 97.0784 90.2549C97.3844 90.5619 97.6923 90.8688 97.9993 91.1758Z" fill="white"/>
<path d="M98.9204 109.6C99.2274 109.293 99.5344 108.986 99.8414 108.679C99.5344 108.986 99.2274 109.294 98.9204 109.6Z" fill="white"/>
<path d="M120.111 47.8788C120.418 47.5718 120.725 47.2648 121.032 46.9578C120.725 47.2638 120.418 47.5708 120.111 47.8788Z" fill="white"/>
<path d="M85.1003 43.2719C85.4073 43.5789 85.7144 43.8859 86.0214 44.1929C85.7144 43.8869 85.4073 43.5789 85.1003 43.2719Z" fill="white"/>
<path d="M101.684 103.152C101.684 102.845 101.684 102.538 101.684 102.231C102.314 102.538 102.314 102.845 101.684 103.152Z" fill="white"/>
<path d="M91.5493 44.1938C91.8563 43.8868 92.1633 43.5798 92.4703 43.2728C92.1643 43.5788 91.8563 43.8868 91.5493 44.1938Z" fill="white"/>
<path d="M91.5493 100.388C91.8563 100.695 92.1633 101.002 92.4703 101.309C92.1643 101.002 91.8563 100.695 91.5493 100.388Z" fill="white"/>
<path d="M110.897 92.0969C111.204 92.4039 111.511 92.7109 111.818 93.0179C111.512 92.7109 111.205 92.4039 110.897 92.0969Z" fill="white"/>
<path d="M60.1333 46.8638C60.8153 45.8268 61.8873 45.8869 62.9323 45.8699C62.3543 47.2019 61.2203 46.9668 60.1333 46.8638Z" fill="#E2AA4D"/>
<path d="M54.7013 71.8378C54.7693 71.7078 54.8633 71.4579 54.9003 71.4669C55.2083 71.5359 55.1333 71.6758 54.6863 71.8248L54.7013 71.8378Z" fill="#E2AA4D"/>
<path d="M62.0665 44.1959C61.6655 44.9259 60.9824 45.0818 60.2314 45.0958C60.6294 44.3618 61.3145 44.2109 62.0665 44.1959Z" fill="white"/>
</svg>
