<svg width="132" height="145" viewBox="0 0 132 145" fill="none" xmlns="http://www.w3.org/2000/svg">
<path d="M47.9418 93.061C48.7428 88.919 51.2648 85.648 53.4388 82.2C54.0788 81.185 54.8918 81.463 55.8288 81.7189C58.9408 82.5719 62.1658 82.77 65.2448 81.934C70.3278 80.555 74.8148 78.104 77.6017 73.33C78.0718 72.525 78.3888 71.67 78.2188 70.708C77.4788 69.775 77.4648 68.692 77.9098 67.711C81.0318 60.828 80.1688 53.894 78.2718 46.94C78.1008 42.627 75.3208 40.1019 72.0908 37.8499C70.9268 37.0389 68.9688 37.048 68.9608 34.97C70.9148 32.939 73.6688 32.088 75.4598 34.101C78.2848 37.276 79.4148 35.317 80.9298 33.203C81.4628 32.458 82.1718 31.838 82.6558 30.596C81.1218 29.778 78.5898 31.035 77.7348 28.689C77.0598 26.836 77.6858 25.057 77.9448 23.25C78.2278 21.275 78.5198 19.31 79.1768 17.409C80.7338 12.897 81.4928 12.442 86.2358 13.607C87.3008 13.868 88.3618 14.441 89.0838 13.213C89.7408 12.096 88.9818 11.206 88.3438 10.314C84.0048 4.25098 79.1118 4.27797 74.7628 10.338C73.6498 11.889 73.3288 13.1329 74.6278 14.844C78.5288 19.9879 78.3198 20.427 72.1778 21.043C69.9578 21.265 68.0608 22.142 67.9968 24.489C67.8938 28.306 66.1368 31.561 65.0708 35.052C64.7608 36.234 63.8118 36.666 62.7788 37.002C58.1258 38.515 54.8228 41.78 51.8358 45.452C51.5618 45.786 51.2368 46.061 50.8628 46.275C49.4468 46.188 48.2118 46.466 47.1378 44.703C42.3058 36.769 39.5738 28.0099 37.1728 19.2009C36.2018 15.6379 36.3678 11.644 36.0628 7.84896C35.6908 3.21196 38.9248 0.194938 43.6948 0.0189383C48.9238 -0.174062 50.3618 1.06298 52.8178 5.81398C56.4258 12.794 58.0178 20.445 60.7418 27.711C61.2618 29.097 61.7698 30.488 62.6538 32.88C63.6498 29.494 64.5078 27.143 65.0188 24.719C65.9728 20.1959 67.7838 15.977 69.3668 11.677C70.7898 7.80896 73.3398 4.84293 76.8068 2.59993C82.9988 -1.40707 89.6458 1.59597 91.4198 8.80397C92.5138 13.252 91.4188 17.23 90.2628 21.294C88.6368 27.009 86.3648 32.454 83.2408 37.552C82.7088 38.42 81.9947 39.6899 82.5757 40.9589C82.9387 40.9959 83.3638 41.162 83.4878 41.035C86.5288 37.927 90.4308 36.241 94.1628 34.193C96.5698 32.873 98.8438 32.134 101.536 32.234C104.449 32.342 107.398 31.999 110.282 32.31C116.569 32.986 120.55 35.813 122.009 40.841C123.326 45.379 120.333 47.766 118.374 50.572C116.248 53.616 112.796 55.322 109.387 56.762C103.053 59.437 96.7048 62.09 89.8798 63.341C88.9468 63.512 87.7528 63.3689 86.7827 64.8389C89.6908 65.4009 91.9728 66.228 94.8618 65.721C101.774 64.508 108.78 63.935 115.53 66.932C119.97 68.903 124.04 71.5349 128.023 74.2219C132.659 77.3499 133.261 88.228 126.171 91.072C125.004 91.54 124.033 92.2249 122.973 92.8179C119.423 94.8059 115.667 94.624 112.755 91.866C110.665 89.887 108.25 88.8519 105.68 87.7869C102.067 86.2889 98.6068 84.412 95.1208 82.621C89.8898 79.935 84.8908 76.763 79.1418 75.085C81.4368 77.666 84.5808 79.115 87.3068 81.047C91.1738 83.7879 93.9838 87.323 96.6508 91.039C99.6708 95.246 102.197 99.647 103.757 104.75C105.064 109.025 106.743 112.882 105.272 117.52C104.655 119.465 105.852 121.629 104.905 124.048C104.192 125.87 103.938 127.536 101.951 127.936C99.4418 128.441 96.9638 128.022 95.2908 125.834C92.6938 122.437 90.1268 119.005 87.7718 115.44C86.6788 113.786 85.6398 112.115 84.4618 110.503C81.1508 105.968 78.2568 101.176 76.3238 95.845C75.9258 94.749 74.8858 93.896 74.1998 92.892C72.1368 89.877 70.1028 86.842 67.8508 83.509C66.9038 87.062 66.1598 90.119 67.0868 93.686C67.8538 96.639 67.3798 100.104 66.9218 103.055C66.0258 108.825 67.0468 114.668 65.5398 120.385C64.6198 123.875 63.8188 127.396 62.6908 130.831C61.8548 130.327 61.4668 129.372 60.6608 128.841C60.0118 128.422 59.2888 128.159 58.5928 127.835C58.2338 127.645 57.9378 127.385 57.6918 127.064C57.3008 126.297 57.2858 125.51 57.5628 124.707C57.7528 124.344 58.0248 124.057 58.3798 123.852C59.0828 123.538 59.8538 123.441 60.5648 123.172C60.8538 122.981 61.1278 122.768 61.3508 122.503C61.5788 122.021 61.6678 121.512 61.6908 120.986C61.7168 119.894 61.6818 118.8 61.9238 117.728C62.0978 117.034 62.4038 116.394 62.7338 115.766C62.8848 115.462 63.0708 115.176 63.2678 114.901C63.4588 114.631 63.6688 114.372 63.8778 114.112C63.9638 113.97 64.0608 113.836 64.1438 113.694C64.3498 113.221 64.4498 112.726 64.4858 112.212C64.4958 111.477 64.4758 110.748 64.4718 110.02C64.4508 109.654 64.4608 109.288 64.4728 108.924C64.4728 108.394 64.4948 107.862 64.4968 107.334C64.4628 106.995 64.4368 106.653 64.3928 106.314C64.2978 105.982 64.2158 105.648 64.1198 105.314C64.0688 105.144 64.0298 104.974 63.9818 104.803C63.9198 104.446 63.9188 104.09 63.9638 103.731C64.0438 103.376 64.1688 103.037 64.3168 102.71C64.6358 101.972 64.3488 101.306 64.0558 100.638C63.8908 100.278 63.7728 99.908 63.6798 99.526C63.3588 97.769 63.5728 95.947 62.9858 94.228C62.7798 93.48 62.6698 92.717 62.6298 91.949C62.5968 91.597 62.5918 91.2379 62.5898 90.8859C62.5608 90.2389 62.4898 89.595 62.1698 89.012C61.9908 88.769 61.8108 88.526 61.6088 88.304C61.5998 88.315 61.2828 87.998 61.2738 88.01C60.9018 87.759 60.4978 87.578 60.0708 87.44C59.7708 87.37 59.4888 87.257 59.2188 87.114C59.2148 87.119 58.8448 86.8509 58.8418 86.8549C58.6228 86.6449 58.4348 86.4069 58.2678 86.1569C57.9698 85.8219 57.6168 85.5579 57.2028 85.3779C56.9158 85.2879 56.6308 85.204 56.3388 85.153C55.8858 85.128 55.4578 85.1869 55.0878 85.4749C54.7548 85.8139 54.5328 86.214 54.3628 86.651C54.2668 86.972 54.1478 87.277 54.0208 87.583C53.8278 88.049 53.6008 88.496 53.3658 88.94C53.2198 89.245 53.0528 89.538 52.8808 89.83C52.7328 90.141 52.5678 90.4399 52.4048 90.7449C52.2518 91.0679 52.0628 91.364 51.8558 91.655C51.6278 91.945 51.3708 92.2 51.0878 92.436C50.7868 92.664 50.4648 92.851 50.1218 93.0079C49.3988 93.2749 48.6778 93.539 47.9418 93.061Z" fill="white"/>
<path d="M49.8828 77.1909C50.0038 78.9099 49.1568 80.001 47.7458 80.908C40.8928 85.313 34.7348 90.553 29.2348 96.564C27.7428 98.194 25.9218 99.086 23.7238 99.601C19.5778 100.572 15.3958 101.591 11.4488 103.149C8.38482 104.359 5.81482 104.376 3.33182 102.285C0.801821 100.154 -0.596185 97.2409 0.244815 94.1099C3.31182 82.6889 9.32183 73.8239 21.6968 70.8499C23.5558 70.4029 25.6258 70.1649 27.0588 68.6199C26.5788 67.2019 25.3598 67.481 24.3728 67.184C13.9768 64.051 6.58781 57.4799 2.27481 47.5289C0.927814 44.4209 3.64582 40.671 7.33882 40.587C12.2238 40.475 17.1348 40.27 21.9338 41.583C29.4538 43.641 36.7218 46.36 43.7548 49.733C44.7198 50.196 45.1508 50.829 45.3898 51.749C45.3808 51.944 45.3718 52.139 45.3698 52.335C45.2308 53.124 45.0348 53.8989 44.8298 54.6769C41.6508 61.986 41.9348 68.5869 48.6268 73.9689C49.5918 74.7449 50.2208 75.8229 49.8828 77.1909Z" fill="white"/>
<path d="M49.8829 77.1909C49.3649 76.4599 48.9769 75.5709 48.3099 75.0229C40.0969 68.2839 39.9669 62.0709 43.9849 54.3679C44.1229 54.1039 44.1959 53.8059 44.2989 53.5229C44.8169 53.0059 44.6039 52.061 45.3709 51.689L45.3889 51.7469C47.3239 50.0329 49.7499 48.8089 50.8629 46.2739L50.8419 46.2499C53.2459 42.6169 56.3409 39.7829 60.1799 37.6609C67.8539 33.4199 75.6609 36.861 79.2249 46.181C80.5499 49.899 81.3279 53.6649 81.3129 57.6789C81.2989 61.5609 80.8859 65.2009 78.7999 68.5579C78.4249 69.1619 78.4029 69.9859 78.2179 70.7079C77.6979 71.2509 77.0759 71.729 76.6729 72.3479C71.3119 80.591 60.5239 84.0099 51.0699 77.8719C50.6879 77.6259 50.2799 77.4179 49.8829 77.1909Z" fill="#DD9C32"/>
<path d="M60.8469 128.068C62.7189 128.151 62.7029 129.492 62.6899 130.832C62.7759 132.542 62.5809 134.1 61.3859 135.534C59.6369 137.633 58.3399 140.15 56.4189 142.054C52.9459 145.497 50.0599 146.049 46.2289 141.094C45.4959 140.146 44.8599 138.976 44.6219 137.817C43.4719 132.215 41.5069 126.683 43.1159 120.804C43.4699 119.512 43.3829 118.068 43.3209 116.701C43.1949 113.929 43.4349 111.211 44.2899 108.575C45.5229 104.775 45.0409 100.721 46.0819 96.89C46.2849 96.142 46.3589 95.4029 47.0239 94.9039C47.1859 95.0409 47.3479 95.178 47.5129 95.312C48.1179 96.199 48.4669 97.1859 48.6629 98.2339C48.1419 101.141 46.7299 103.949 47.6659 107.024C47.5649 108.122 46.7419 109.011 46.7639 110.141C46.8089 110.468 46.8409 110.798 46.8889 111.123C46.9899 111.586 47.1079 112.047 47.3029 112.482C47.4709 112.745 47.6309 113.012 47.8059 113.271C48.0009 113.518 48.1709 113.781 48.3349 114.049C48.4969 114.316 48.6339 114.597 48.7629 114.881C48.9689 115.29 49.1669 115.704 49.3399 116.128C49.4959 116.532 49.5619 116.955 49.5849 117.375C49.8649 118.099 50.1489 117.144 50.4339 117.363C50.9599 117.303 51.4469 117.403 51.9169 117.637C52.2319 117.843 52.5049 118.086 52.7479 118.37C52.9709 118.677 53.1339 119.012 53.2569 119.369C53.4999 120.267 53.5149 121.187 53.5179 122.106C53.5309 122.614 53.5179 123.125 53.5389 123.631C53.6049 124.104 53.7069 124.571 53.8799 125.021C54.0199 125.31 54.1389 125.606 54.2599 125.902C54.4679 126.349 54.6639 126.8 54.7939 127.28C54.8339 127.625 54.8049 127.962 54.7059 128.295C54.5109 128.791 54.2459 129.247 53.9279 129.675C53.5699 130.107 53.1219 130.404 52.5899 130.578C51.8729 130.759 51.1539 130.764 50.4319 130.592C50.0769 130.474 49.7719 130.277 49.5319 130.033C49.3999 129.869 49.3079 129.655 49.3079 129.446C49.3449 129.475 49.0819 129.611 49.0819 129.611C49.0819 129.611 49.3479 129.74 49.3659 129.77C49.4379 130.089 49.5749 130.331 49.8129 130.546C54.2389 133.921 54.3859 135.225 50.7029 138.085C50.4579 138.189 50.1939 138.309 49.9739 138.443C49.8239 138.631 49.8219 138.823 50.0279 139.006C50.2689 139.093 50.4969 139.15 50.7589 139.157C51.0839 139.139 51.3839 139.136 51.7029 139.124C52.2209 139.073 52.7139 138.994 53.1849 138.84C53.4619 138.674 53.7209 138.484 53.9389 138.248C54.1779 137.784 54.2589 137.285 54.2979 136.769C53.7729 132.656 57.7259 131.762 59.5849 129.361C59.8029 129.015 60.0559 128.7 60.3329 128.402C60.5029 128.285 60.6749 128.177 60.8469 128.068Z" fill="white"/>
<path d="M47.9419 93.061C48.8419 92.683 49.6689 92.085 50.7129 92.14C51.1659 92.929 50.7309 93.545 50.3259 94.171C50.0939 94.467 49.8269 94.7289 49.5349 94.9669C49.2289 95.1919 48.8889 95.346 48.5239 95.449C47.9339 95.522 47.4219 95.373 47.0279 94.903H47.0249C47.0409 94.146 47.2009 93.459 47.9419 93.061Z" fill="white"/>
<path d="M119.916 90.273C115.799 89.585 111.753 88.24 108.288 85.59C107.031 84.629 105.912 83.701 104.231 83.823C103.07 83.9069 102.253 83.171 101.361 82.561C99.0869 81.006 96.7549 79.561 93.9199 79.218C93.3329 79.147 92.5899 79.0199 92.2309 78.6309C89.9439 76.1499 87.0929 75.015 83.8259 74.388C82.1059 74.058 80.9719 72.549 81.2129 70.575C81.4879 68.321 83.2389 68.363 84.9899 68.158C92.4559 67.286 99.7949 69.0829 107.161 69.1309C114.064 69.1759 118.833 73.495 124.608 75.734C125.796 76.195 126.751 77.4419 127.618 78.4899C128.542 79.6079 129.008 80.891 127.575 82.099C126.573 82.944 126.417 84.121 126.208 85.375C125.688 88.498 123.227 90.355 119.916 90.273Z" fill="white"/>
<path d="M49.7908 93.9819C50.0978 93.3679 50.4049 92.7539 50.7119 92.1399C51.0609 91.8739 51.3018 91.5009 51.6328 91.2189C51.6328 90.9119 51.6328 90.605 51.6328 90.298C51.9718 90.022 52.2468 89.6839 52.5538 89.3769C53.1278 88.8959 52.9189 88.024 53.4749 87.535C53.4749 87.228 53.4749 86.9209 53.4749 86.6139C53.8559 86.2359 54.0019 85.6959 54.3689 85.3069C54.7449 84.9189 55.1348 84.552 55.6588 84.366C56.2068 84.327 56.7428 84.332 57.1608 84.772C57.4678 84.772 57.7748 84.772 58.0818 84.772C58.3128 85.044 58.4659 85.3529 58.5289 85.7049C58.5949 86.0559 58.7479 86.3619 59.0029 86.6149C59.3439 86.8799 59.6969 87.1269 60.0629 87.3549C60.1199 87.5609 60.1758 87.7689 60.2348 87.9749C58.8608 92.0649 58.8608 92.0649 63.6098 91.2209C63.6098 92.1419 63.6098 93.0639 63.6098 93.9849C64.8068 96.0069 63.2849 98.418 64.5309 100.434C65.1879 101.355 65.3109 102.276 64.5309 103.198C64.5309 103.505 64.5309 103.812 64.5309 104.119C64.2939 104.324 64.2149 104.528 64.2939 104.733C64.3729 104.938 64.4519 105.04 64.5309 105.04C64.7649 105.311 64.9138 105.623 64.9798 105.975C65.0338 106.332 65.1909 106.634 65.4529 106.883C65.4529 107.497 65.4529 108.111 65.4529 108.725C65.2059 108.93 65.1228 109.134 65.2058 109.339C65.2878 109.544 65.3699 109.646 65.4529 109.646C65.4529 110.874 65.4529 112.103 65.4529 113.331C65.1138 113.607 64.8388 113.945 64.5318 114.252C64.2158 114.551 63.9089 114.858 63.6109 115.173C63.0369 115.654 63.2458 116.526 62.6898 117.015C62.6898 118.55 62.6898 120.086 62.6898 121.621C62.1089 122.098 62.3038 122.963 61.7688 123.464C60.7068 124.438 59.1318 123.357 58.0838 124.385C57.3978 125.306 57.3978 126.227 58.0838 127.149C58.5838 127.703 59.3288 127.558 59.9388 127.797C60.3598 128.106 60.4809 128.641 60.8479 128.992C60.8219 130.364 60.1558 131.392 58.8848 131.775C55.5528 132.778 54.9829 135.218 55.3199 138.205C54.9809 138.481 54.7059 138.819 54.3989 139.126C53.3379 140.103 51.7599 139.014 50.7139 140.047C50.4069 140.047 50.0998 140.047 49.7928 140.047C49.5168 139.708 49.1788 139.433 48.8718 139.126C48.3538 138.512 48.3538 137.898 48.8718 137.283C50.2688 137.304 51.7178 137.274 52.2988 135.707C52.8868 134.12 51.7509 133.151 50.6729 132.309C49.8369 131.656 48.8578 131.178 48.8718 129.913C49.1788 129.59 49.4858 129.59 49.7928 129.913C50.7138 130.599 51.6359 130.607 52.5569 129.913C52.8639 129.606 53.1708 129.299 53.4778 128.992C53.8258 128.726 54.0679 128.353 54.3989 128.071C54.3989 127.764 54.3989 127.457 54.3989 127.15C54.0669 126.868 53.8258 126.494 53.4778 126.229C53.4778 125.922 53.4778 125.615 53.4778 125.308C53.1458 125.026 52.9049 124.652 52.5569 124.387C52.5569 123.773 52.5569 123.159 52.5569 122.545C53.2999 121.317 53.2829 120.088 52.5569 118.86C52.2669 118.536 51.9278 118.261 51.6358 117.939C51.0219 117.939 50.4068 117.939 49.7928 117.939C49.4858 118.223 49.1788 118.223 48.8718 117.939C48.8718 117.325 48.8718 116.711 48.8718 116.097C48.5398 115.815 48.2989 115.441 47.9509 115.176C47.9509 114.869 47.9509 114.562 47.9509 114.255C47.6289 113.963 47.3538 113.624 47.0298 113.334C46.4948 112.834 46.6898 111.969 46.1088 111.492C46.1088 111.185 46.1088 110.878 46.1088 110.571C45.5588 109.364 46.5948 108.686 47.0298 107.807C45.0878 104.225 46.8509 100.979 47.9509 97.6739C46.9799 96.3269 47.9548 95.628 48.8718 94.91C49.1938 94.614 49.4688 94.2749 49.7908 93.9819Z" fill="white"/>
<path d="M87.5658 110.565C87.2588 109.951 86.9517 109.337 86.6447 108.723C85.6547 107.665 86.7637 106.083 85.7237 105.038C85.7237 104.731 85.7237 104.424 85.7237 104.117C84.8877 103.372 85.6888 102.082 84.8028 101.353C84.8028 101.046 84.8028 100.739 84.8028 100.432C84.4808 100.14 84.2057 99.7999 83.8817 99.5109C83.5837 99.1949 83.2757 98.888 82.9607 98.59C82.6537 98.283 82.3778 97.9449 82.0398 97.6689C82.0398 97.3619 82.0398 97.0549 82.0398 96.7479C81.7178 96.4559 81.4427 96.116 81.1187 95.827C80.8207 95.511 80.5127 95.2039 80.1977 94.9059C79.8997 94.5899 79.5918 94.2829 79.2768 93.9849C78.9778 93.6689 78.6707 93.362 78.3557 93.064C78.0567 92.748 77.7497 92.4409 77.4347 92.1429C77.1277 91.8359 76.8518 91.4969 76.5138 91.2219C76.5138 90.9149 76.5138 90.608 76.5138 90.301C76.1918 90.009 75.9167 89.6699 75.5927 89.3799C75.3027 89.0559 74.9637 88.7809 74.6717 88.4589C74.3647 88.4589 74.0578 88.4589 73.7508 88.4589C73.2278 87.9529 73.3897 87.1039 72.8297 86.6169C72.3037 86.1119 72.4697 85.262 71.9087 84.775C70.5257 81.549 73.9208 83.1019 74.6728 82.0109C74.9968 81.7209 75.2727 81.382 75.5937 81.09C75.5937 80.783 75.5937 80.4759 75.5937 80.1689C76.1737 79.6909 75.9828 78.828 76.5148 78.327C77.1288 78.327 77.7428 78.327 78.3578 78.327C78.6248 78.674 78.9957 78.9179 79.2787 79.2479C79.5857 79.5549 79.8928 79.8619 80.1998 80.1689C80.5218 80.4609 80.7968 80.801 81.1208 81.09C81.4198 81.406 81.7267 81.7129 82.0417 82.0109C82.3397 82.3269 82.6478 82.6339 82.9628 82.9319C83.4728 83.5459 83.4998 84.16 82.9628 84.775C82.6558 85.389 82.3487 86.0029 82.0417 86.6169C81.6947 86.8839 81.4508 87.255 81.1208 87.538C81.1208 88.459 81.1208 89.3799 81.1208 90.3019C81.4428 90.5939 81.7177 90.934 82.0417 91.223C83.7357 92.419 85.8668 90.9979 87.5698 92.1439C87.5698 92.4509 87.5698 92.7579 87.5698 93.0649C87.8918 93.3569 88.1667 93.696 88.4907 93.986C88.7887 94.302 89.0967 94.6089 89.4117 94.9069C89.7187 95.2139 89.9948 95.5519 90.3328 95.8279C90.3328 96.1349 90.3328 96.442 90.3328 96.749C90.6548 97.041 90.9297 97.3799 91.2537 97.6699C92.1747 98.3479 93.0968 98.3689 94.0178 97.6699C94.6318 97.3629 95.2467 97.056 95.8607 96.749C96.1677 96.462 96.4748 96.462 96.7818 96.749C96.7818 97.056 96.7818 97.3629 96.7818 97.6699C97.1128 97.9539 97.3568 98.3239 97.7028 98.5909C98.0518 99.4699 98.6667 100.084 99.5457 100.433C100.078 100.935 99.8878 101.798 100.467 102.275C100.467 102.889 100.467 103.503 100.467 104.118C100.789 104.41 101.064 104.749 101.388 105.039C101.826 105.917 102.824 106.608 102.309 107.803C102.072 108.008 101.993 108.212 102.072 108.417C102.151 108.622 102.23 108.724 102.309 108.724C102.309 109.952 102.309 111.181 102.309 112.409C101.618 113.33 101.618 114.251 102.309 115.173C102.309 115.48 102.309 115.787 102.309 116.094C102.631 116.386 102.906 116.725 103.23 117.015C103.74 117.629 103.767 118.243 103.23 118.857C103.23 119.164 103.23 119.471 103.23 119.778C102.636 120.249 102.873 121.135 102.309 121.62C102.309 121.927 102.309 122.234 102.309 122.541C101.728 123.018 101.923 123.883 101.388 124.383C100.774 124.901 100.16 124.901 99.5448 124.383C99.2378 124.076 98.9617 123.738 98.6237 123.462C98.3167 123.155 98.0098 122.848 97.7028 122.541C97.4268 122.202 97.0888 121.927 96.7818 121.62C96.4748 121.313 96.1987 120.975 95.8607 120.699C95.2467 119.778 94.6328 118.857 94.0178 117.935C93.8108 117.73 93.7418 117.526 93.8108 117.321C93.8798 117.116 93.9488 117.014 94.0178 117.014C94.3338 116.716 94.6407 116.409 94.9387 116.093C95.2547 115.794 95.5618 115.487 95.8598 115.172C96.5458 114.251 96.5458 113.329 95.8598 112.408C95.5698 112.084 95.2307 111.809 94.9387 111.487C94.3247 111.487 93.7098 111.487 93.0958 111.487C92.8038 111.809 92.4637 112.084 92.1747 112.408C91.2537 113.844 90.3318 113.825 89.4108 112.408C89.1038 112.101 88.7967 111.794 88.4897 111.487C88.2027 111.157 87.8948 110.85 87.5658 110.565Z" fill="white"/>
<path d="M64.5348 35.0239C63.2038 34.0759 63.9848 32.991 64.6058 32.259C66.4328 30.107 66.5778 27.5179 66.7138 24.9529C66.8978 21.4729 69.4158 19.2629 72.8108 19.8229C73.1078 19.8719 73.3808 20.0699 73.6778 20.1179C74.5878 20.2669 75.6238 20.4669 76.1518 19.5049C76.7948 18.3349 75.9708 17.476 75.1888 16.712C73.9458 15.496 71.7018 15.1059 71.9458 12.6779C72.1548 10.5989 74.1078 9.79796 75.0798 8.29796C76.6728 5.83996 78.4158 4.20296 81.7388 4.52196C83.8748 4.72696 85.5018 5.04796 86.7648 6.93596C87.6028 8.18896 88.9308 9.1019 89.9388 10.2559C91.6678 12.2339 91.0598 14.6959 88.6868 15.8409C87.5318 16.3979 87.0808 15.4259 86.3508 14.9679C83.1468 12.9609 81.9348 13.4269 80.5538 16.7749C79.2488 19.9379 79.2268 23.34 78.4698 26.603C77.9368 28.899 79.0608 29.7549 81.3148 29.2889C82.3328 29.0789 83.1408 28.1639 84.4058 28.3869C85.1658 29.8869 84.0708 31.0019 83.4008 32.0659C82.3558 33.7259 80.6758 34.8699 79.8738 36.8249C79.3178 38.1799 76.3358 38.2619 76.0328 36.9969C74.9358 32.4149 72.0948 34.4459 69.5898 34.9719C69.4398 35.0029 69.2858 35.0109 69.1328 35.0289C67.5988 36.1819 66.0658 36.1819 64.5348 35.0239Z" fill="white"/>
<path d="M116.141 46.0759C115.889 52.2659 110.631 54.096 105.431 53.927C103.803 53.874 102.605 53.516 101.475 55.048C99.5388 57.674 96.8638 58.4159 93.9068 57.0319C92.2158 56.2399 91.3598 56.664 90.6908 58.205C90.5098 58.621 90.2788 59.064 89.9478 59.356C88.4718 60.659 86.5698 61.4749 84.8878 60.4849C83.1218 59.4459 83.3818 57.02 83.9388 55.549C84.5058 54.051 85.2238 52.4839 85.9738 50.9929C87.0388 48.8759 88.1568 47.6239 90.9268 48.1129C94.3248 48.7119 96.9058 46.314 99.5378 44.621C101.101 43.617 102.511 42.481 104.458 42.406C106.579 42.325 108.463 42.452 108.796 45.254C109.043 47.334 110.065 48.4659 112.162 46.8489C113.382 45.9079 114.767 46.1309 116.141 46.0759Z" fill="white"/>
<path d="M64.5348 35.0239C66.0678 35.0249 67.5998 35.027 69.1318 35.028C71.9788 36.453 74.7958 37.877 76.8928 40.431C78.2978 42.141 79.4569 43.8529 79.2248 46.1819C77.4699 43.7619 76.2559 40.9589 73.6949 39.1199C69.5858 36.1679 65.3558 35.839 60.8448 38.038C57.5028 39.668 54.5858 41.7769 52.6358 45.0269C52.2188 45.7219 51.6678 46.1779 50.8408 46.2509C50.5868 44.8599 51.4879 44.032 52.2919 43.101C55.6179 39.252 59.7408 36.6359 64.5348 35.0239Z" fill="#F5F2F1"/>
<path d="M63.6109 91.219C62.8909 91.777 62.1129 92.2759 61.4649 92.9069C60.3479 93.9939 59.3889 93.892 58.3199 92.824C57.2519 91.756 57.1499 90.7969 58.2369 89.6799C58.8689 89.0309 59.3669 88.253 59.9259 87.534C60.5399 87.012 61.1549 87.02 61.7689 87.534C61.9759 87.779 62.1409 88.049 62.2659 88.343C62.4429 88.607 62.6299 88.864 62.8329 89.109C63.1359 89.477 63.2619 89.96 63.6119 90.298C63.6109 90.605 63.6109 90.912 63.6109 91.219Z" fill="white"/>
<path d="M100.761 37.8119C99.6997 37.6389 98.0547 38.1139 98.1817 36.6699C98.3317 34.9659 100.175 34.5779 101.624 34.2789C102.813 34.0339 103.646 34.789 103.93 35.936C104.129 36.743 103.788 37.4529 102.903 37.6309C102.173 37.7789 101.411 37.7629 100.761 37.8119Z" fill="white"/>
<path d="M116.117 46.0919C116.266 44.9609 115.828 43.4569 117.77 43.5289C118.006 43.5379 118.412 43.8179 118.434 44.0079C118.635 45.7409 117.357 45.8939 116.117 46.0919Z" fill="white"/>
<path d="M74.6667 82.007C74.0317 83.215 71.7107 82.7359 71.9027 84.7709C70.8777 84.1829 70.7397 83.094 70.0837 82.007C71.8217 82.007 73.2447 82.007 74.6667 82.007Z" fill="white"/>
<path d="M64.5329 100.431C62.7919 98.486 63.9539 96.1269 63.6119 93.9819C65.3519 95.9269 64.1899 98.287 64.5329 100.431Z" fill="white"/>
<path d="M87.5659 92.1399C85.7199 91.8539 83.6528 92.8879 82.0378 91.2189C83.8838 91.5049 85.9509 90.4709 87.5659 92.1399Z" fill="white"/>
<path d="M64.5327 103.195C64.5327 102.274 64.5327 101.352 64.5327 100.431C66.6827 102.139 66.6827 102.241 64.5327 103.195Z" fill="white"/>
<path d="M89.4089 112.407C90.3299 112.978 91.2519 112.978 92.1729 112.407C92.0419 113.351 91.8079 114.231 90.5719 114.075C89.6169 113.954 89.5289 113.151 89.4089 112.407Z" fill="white"/>
<path d="M102.308 107.801C101.926 106.905 101.333 106.079 101.387 105.037C102.373 105.732 103.963 106.226 102.308 107.801Z" fill="white"/>
<path d="M85.7238 105.037C87.0758 106.004 86.5128 107.45 86.6448 108.722C85.2928 107.755 85.8548 106.309 85.7238 105.037Z" fill="white"/>
<path d="M58.0828 124.383C59.0498 123.031 60.4958 123.593 61.7678 123.462C60.8008 124.813 59.3548 124.251 58.0828 124.383Z" fill="white"/>
<path d="M94.0157 97.6669C93.0947 98.8519 92.1727 98.8519 91.2517 97.6669C92.1727 97.6669 93.0937 97.6669 94.0157 97.6669Z" fill="white"/>
<path d="M58.0828 127.147C56.8978 126.226 56.8978 125.305 58.0828 124.383C58.0828 125.304 58.0828 126.225 58.0828 127.147Z" fill="white"/>
<path d="M84.8018 101.352C85.8888 102.013 85.6907 103.103 85.7227 104.116C84.6367 103.455 84.8348 102.365 84.8018 101.352Z" fill="white"/>
<path d="M59.9258 128.068C59.1668 128.05 58.4788 127.891 58.0828 127.147C59.0958 127.18 60.1858 126.982 60.8468 128.068C60.5398 128.389 60.2328 128.389 59.9258 128.068Z" fill="white"/>
<path d="M57.1617 84.77C56.5477 84.77 55.9327 84.77 55.3187 84.77C55.1647 84.896 55.0117 85.0219 54.8577 85.1489C54.7037 85.0239 54.5507 84.897 54.3967 84.77C55.3187 83.585 56.2397 83.585 57.1617 84.77Z" fill="white"/>
<path d="M102.308 115.171C101.123 114.25 101.123 113.328 102.308 112.407C102.308 113.328 102.308 114.249 102.308 115.171Z" fill="white"/>
<path d="M95.8579 112.407C97.0429 113.328 97.0429 114.249 95.8579 115.171C95.8579 114.249 95.8579 113.328 95.8579 112.407Z" fill="white"/>
<path d="M76.5099 78.322C76.4919 79.081 76.3329 79.7689 75.5889 80.1639C75.6059 79.4049 75.7659 78.717 76.5099 78.322Z" fill="white"/>
<path d="M99.5437 124.383C100.158 124.383 100.772 124.383 101.387 124.383C100.772 125.327 100.158 125.327 99.5437 124.383Z" fill="white"/>
<path d="M101.387 124.383C101.405 123.624 101.564 122.936 102.308 122.541C102.29 123.299 102.13 123.987 101.387 124.383Z" fill="white"/>
<path d="M61.7678 123.462C61.7858 122.703 61.9448 122.015 62.6888 121.619C62.6718 122.378 62.5118 123.066 61.7678 123.462Z" fill="white"/>
<path d="M102.308 121.619C102.326 120.86 102.485 120.172 103.229 119.777C103.212 120.536 103.052 121.224 102.308 121.619Z" fill="white"/>
<path d="M103.229 118.856C103.229 118.242 103.229 117.628 103.229 117.014C104.173 117.627 104.173 118.241 103.229 118.856Z" fill="white"/>
<path d="M62.6897 117.013C62.7077 116.254 62.8667 115.566 63.6107 115.171C63.5937 115.929 63.4337 116.617 62.6897 117.013Z" fill="white"/>
<path d="M100.465 102.273C99.7207 101.877 99.5607 101.19 99.5437 100.431C100.288 100.827 100.448 101.515 100.465 102.273Z" fill="white"/>
<path d="M63.6108 90.298C63.3038 89.991 62.9968 89.684 62.6898 89.377C62.5638 89.223 62.4378 89.07 62.3108 88.916C62.4368 88.762 62.5628 88.609 62.6898 88.455C63.4338 88.851 63.5938 89.539 63.6108 90.298Z" fill="white"/>
<path d="M53.4759 87.5339C53.4579 88.2929 53.2989 88.9809 52.5549 89.3759C52.5729 88.6169 52.7319 87.9299 53.4759 87.5339Z" fill="white"/>
<path d="M72.825 86.6129C73.569 87.0089 73.7289 87.697 73.7459 88.455C73.0019 88.059 72.842 87.3719 72.825 86.6129Z" fill="white"/>
<path d="M61.7678 87.5339C61.1538 87.5339 60.5388 87.5339 59.9248 87.5339C59.7198 87.3289 59.6508 87.1249 59.7198 86.9199C59.7878 86.7149 59.8568 86.6129 59.9248 86.6129C60.6848 86.6299 61.3728 86.7899 61.7678 87.5339Z" fill="white"/>
<path d="M71.9028 84.77C72.6468 85.166 72.8068 85.8539 72.8238 86.6119C72.0808 86.2169 71.9208 85.529 71.9028 84.77Z" fill="white"/>
<path d="M54.3978 85.692C54.0908 85.999 53.7838 86.3059 53.4768 86.6129C53.4948 85.8539 53.6538 85.1659 54.3978 84.7709C54.6318 84.9759 54.7098 85.1799 54.6318 85.3849C54.5538 85.5889 54.4758 85.692 54.3978 85.692Z" fill="white"/>
<path d="M82.9597 84.77C82.9597 84.156 82.9597 83.5419 82.9597 82.9269C83.9037 83.5419 83.9037 84.156 82.9597 84.77Z" fill="white"/>
<path d="M75.5887 81.085C75.2817 81.392 74.9747 81.6989 74.6677 82.0059C74.9737 81.6999 75.2817 81.393 75.5887 81.085Z" fill="white"/>
<path d="M82.9598 82.9279C82.6528 82.6209 82.3458 82.314 82.0388 82.007C82.3448 82.314 82.6518 82.6209 82.9598 82.9279Z" fill="white"/>
<path d="M58.0828 85.692C58.0828 85.385 58.0828 85.0779 58.0828 84.7709C58.3898 85.0779 58.6968 85.385 59.0038 85.692C58.6968 85.973 58.3898 85.973 58.0828 85.692Z" fill="white"/>
<path d="M58.0828 85.692C58.3898 85.692 58.6968 85.692 59.0038 85.692C59.0038 85.999 59.0038 86.3059 59.0038 86.6129C58.6968 86.3059 58.3898 85.999 58.0828 85.692Z" fill="white"/>
<path d="M59.9259 86.6129C59.9259 86.9199 59.9259 87.2269 59.9259 87.5339C59.6189 87.2269 59.3119 86.9199 59.0049 86.6129C59.3119 86.6129 59.6189 86.6129 59.9259 86.6129Z" fill="white"/>
<path d="M61.7678 88.455C61.7678 88.148 61.7678 87.8409 61.7678 87.5339C62.0748 87.8409 62.3818 88.148 62.6888 88.455C62.3828 88.737 62.0758 88.737 61.7678 88.455Z" fill="white"/>
<path d="M74.6667 88.455C74.9737 88.762 75.2808 89.0689 75.5878 89.3759C75.2818 89.0689 74.9737 88.762 74.6667 88.455Z" fill="white"/>
<path d="M52.5548 89.3759C52.2478 89.6829 51.9408 89.9899 51.6338 90.2969C51.9408 89.9909 52.2478 89.6839 52.5548 89.3759Z" fill="white"/>
<path d="M75.5889 89.3759C75.8959 89.6829 76.2029 89.9899 76.5099 90.2969C76.2029 89.9909 75.8959 89.6839 75.5889 89.3759Z" fill="white"/>
<path d="M51.6339 91.2189C51.3269 91.5259 51.0199 91.833 50.7129 92.14C51.0189 91.833 51.3269 91.5259 51.6339 91.2189Z" fill="white"/>
<path d="M77.4309 92.14C77.7379 92.447 78.0449 92.754 78.3519 93.061C78.0459 92.754 77.7389 92.447 77.4309 92.14Z" fill="white"/>
<path d="M78.3528 93.061C78.6598 93.368 78.9668 93.6749 79.2738 93.9819C78.9668 93.6759 78.6598 93.368 78.3528 93.061Z" fill="white"/>
<path d="M88.4879 93.9819C88.1809 93.6749 87.8739 93.368 87.5669 93.061C87.8729 93.368 88.1809 93.6749 88.4879 93.9819Z" fill="white"/>
<path d="M79.2737 93.9819C79.5807 94.2889 79.8877 94.596 80.1947 94.903C79.8877 94.597 79.5807 94.2899 79.2737 93.9819Z" fill="white"/>
<path d="M80.1948 94.9039C80.5018 95.2109 80.8088 95.518 81.1158 95.825C80.8098 95.518 80.5028 95.2109 80.1948 94.9039Z" fill="white"/>
<path d="M96.7799 96.746C96.4729 96.746 96.1659 96.746 95.8589 96.746C96.1649 96.116 96.4729 96.116 96.7799 96.746Z" fill="white"/>
<path d="M91.2518 97.6669C90.9448 97.3599 90.6378 97.053 90.3308 96.746C90.6368 97.053 90.9438 97.3599 91.2518 97.6669Z" fill="white"/>
<path d="M97.7008 98.5889C97.3938 98.2819 97.0868 97.975 96.7798 97.668C97.0868 97.974 97.3938 98.2819 97.7008 98.5889Z" fill="white"/>
<path d="M64.5328 105.037C63.9028 104.73 63.9028 104.423 64.5328 104.116C64.5328 104.423 64.5328 104.73 64.5328 105.037Z" fill="white"/>
<path d="M101.387 105.037C101.08 104.73 100.773 104.423 100.466 104.116C100.772 104.423 101.079 104.73 101.387 105.037Z" fill="white"/>
<path d="M64.5327 105.958C64.5327 105.651 64.5327 105.344 64.5327 105.037C64.8397 105.344 65.1467 105.651 65.4537 105.958C65.1467 106.24 64.8397 106.24 64.5327 105.958Z" fill="white"/>
<path d="M64.5327 105.958C64.8397 105.958 65.1467 105.958 65.4537 105.958C65.4537 106.265 65.4537 106.572 65.4537 106.879C65.1467 106.573 64.8397 106.265 64.5327 105.958Z" fill="white"/>
<path d="M102.308 108.722C101.678 108.415 101.678 108.108 102.308 107.801C102.308 108.108 102.308 108.415 102.308 108.722Z" fill="white"/>
<path d="M65.4537 109.643C64.8237 109.336 64.8237 109.029 65.4537 108.722C65.4537 109.029 65.4537 109.336 65.4537 109.643Z" fill="white"/>
<path d="M87.5659 110.565C87.8729 110.872 88.1799 111.179 88.4869 111.486C88.1809 111.179 87.8729 110.872 87.5659 110.565Z" fill="white"/>
<path d="M94.0157 117.013C94.0157 117.32 94.0157 117.627 94.0157 117.934C93.3847 117.627 93.3847 117.32 94.0157 117.013Z" fill="white"/>
<path d="M95.8579 120.698C96.1649 121.005 96.4719 121.312 96.7789 121.619C96.4729 121.312 96.1649 121.005 95.8579 120.698Z" fill="white"/>
<path d="M98.6218 123.462C98.9288 123.769 99.2358 124.076 99.5428 124.383C99.2368 124.076 98.9298 123.769 98.6218 123.462Z" fill="white"/>
<path d="M45.3708 51.6899C45.2888 52.4619 45.0358 53.1339 44.2988 53.5239C44.2668 52.6849 44.4018 51.9439 45.3708 51.6899Z" fill="#F5F2F1"/>
<path d="M48.8898 129.016C48.1188 128.533 47.1818 128.193 47.4308 127.037C47.4668 126.872 47.9168 126.626 48.0768 126.685C49.2468 127.115 48.6888 128.185 48.8898 129.016Z" fill="white"/>
<path d="M48.8698 94.9039C48.4878 95.7999 47.8938 96.626 47.9488 97.668C46.8618 97.006 47.0598 95.9169 47.0288 94.9039C47.6418 94.9039 48.2558 94.9039 48.8698 94.9039Z" fill="white"/>
<path d="M47.0268 107.801C47.0808 108.843 46.4867 109.668 46.1057 110.565C44.4497 108.989 46.0408 108.496 47.0268 107.801Z" fill="white"/>
<path d="M50.7119 140.044C51.6789 138.692 53.1249 139.255 54.3969 139.123C53.4299 140.474 51.9849 139.912 50.7119 140.044Z" fill="white"/>
<path d="M52.5549 118.856C53.8639 120.084 53.8639 121.313 52.5549 122.541C52.5549 121.312 52.5549 120.084 52.5549 118.856Z" fill="white"/>
<path d="M52.5548 129.91C51.6338 131.095 50.7118 131.095 49.7908 129.91C50.7118 129.91 51.6338 129.91 52.5548 129.91Z" fill="white"/>
<path d="M48.8699 137.28C48.8699 137.894 48.8699 138.508 48.8699 139.123C47.9249 138.508 47.9249 137.894 48.8699 137.28Z" fill="white"/>
<path d="M46.1047 111.486C46.8487 111.882 47.0087 112.57 47.0257 113.328C46.2827 112.932 46.1227 112.245 46.1047 111.486Z" fill="white"/>
<path d="M48.8699 117.934C49.1769 117.934 49.4839 117.934 49.7909 117.934C49.4839 118.565 49.1769 118.565 48.8699 117.934Z" fill="white"/>
<path d="M53.4758 126.225C53.7828 126.532 54.0898 126.839 54.3968 127.146C54.0908 126.84 53.7838 126.532 53.4758 126.225Z" fill="white"/>
<path d="M54.3978 128.068C54.0908 128.375 53.7838 128.682 53.4768 128.989C53.7828 128.682 54.0898 128.375 54.3978 128.068Z" fill="white"/>
<path d="M59.9258 128.068C60.2328 128.068 60.5398 128.068 60.8468 128.068C60.8468 128.375 60.8468 128.682 60.8468 128.989C60.5398 128.682 60.2328 128.375 59.9258 128.068Z" fill="white"/>
<path d="M49.7909 129.91C49.4839 129.91 49.1769 129.91 48.8699 129.91C48.8699 129.603 48.8699 129.296 48.8699 128.989C49.1769 129.296 49.4839 129.603 49.7909 129.91Z" fill="white"/>
<path d="M54.3977 139.123C54.7047 138.816 55.0117 138.509 55.3187 138.202C55.0117 138.508 54.7047 138.815 54.3977 139.123Z" fill="white"/>
<path d="M49.7909 93.9819C49.4839 94.2889 49.1769 94.596 48.8699 94.903C49.1769 94.597 49.4839 94.2889 49.7909 93.9819Z" fill="white"/>
<path d="M54.3977 85.692C54.3977 85.385 54.3977 85.0779 54.3977 84.7709C54.7047 84.7709 55.0117 84.7709 55.3187 84.7709C55.0117 85.0769 54.7047 85.384 54.3977 85.692Z" fill="white"/>
<path d="M61.7678 88.455C62.0748 88.455 62.3818 88.455 62.6888 88.455C62.6888 88.762 62.6888 89.0689 62.6888 89.3759C62.3828 89.0689 62.0758 88.762 61.7678 88.455Z" fill="white"/>
</svg>
