<svg width="127" height="134" viewBox="0 0 127 134" fill="none" xmlns="http://www.w3.org/2000/svg">
<path d="M51.6686 80.0139C44.4656 82.6879 37.8536 86.5219 31.4936 90.7369C26.7346 93.8909 21.8736 96.5629 16.2056 97.6269C15.0276 97.8479 13.9516 98.5639 12.7986 98.9669C6.49462 101.176 0.946574 97.7829 0.128574 91.1359C-0.632426 84.9439 2.12958 79.6239 4.59858 74.2639C4.83358 73.7529 5.41259 73.3099 5.93659 73.0339C12.6696 69.4789 18.3606 64.2849 25.1776 60.8609C29.7386 58.5699 34.5056 57.3399 39.6306 57.7719C40.4546 57.8419 41.2286 57.7709 41.6796 57.0849C42.2566 56.2079 41.3686 55.8359 40.9216 55.2489C34.4966 46.7969 30.3946 37.1949 27.1536 27.1789C25.9766 23.5419 27.6746 20.6199 29.6746 17.8179C29.9326 17.4569 30.3516 16.9939 30.7266 16.9659C34.6766 16.6629 38.6896 14.5839 42.4846 17.8119C47.1216 21.7569 52.3056 25.0059 55.9046 30.1829C57.7676 32.8629 60.9456 34.5809 62.1846 38.4989C64.2476 35.7719 63.8646 32.9649 64.5826 30.5069C65.7516 26.5039 65.6926 22.0319 69.0516 18.8619C69.4926 18.4459 69.9106 17.9379 69.8216 17.2659C68.9966 11.0049 73.3916 6.83992 76.1186 2.07992C77.4626 -0.26708 81.6806 -0.710063 83.4556 1.17294C86.5616 4.46794 89.7356 7.74892 89.5306 12.9849C89.2446 20.3079 89.9106 27.6839 87.7926 34.8599C87.5726 35.6049 87.4636 36.5419 88.1036 37.0199C89.0856 37.7529 89.7696 36.8149 90.4226 36.2179C93.6116 33.3009 97.0746 31.3799 101.629 32.6619C106.641 34.0729 108.407 38.3039 109.527 42.5229C111.506 49.9759 110.957 57.3649 106.769 64.1329C105.809 65.6839 106.331 66.4529 107.58 67.5499C109.699 69.4119 112.129 70.6379 114.601 71.8669C118.791 73.9499 122.338 76.7219 124.786 80.8459C127.501 85.4179 126.302 89.2609 121.399 91.0559C119.388 91.7919 117.388 92.5609 115.378 93.3009C111.716 94.6479 108.141 95.4869 104.495 92.9829C103.596 92.3649 102.654 91.3009 100.971 91.4869C100.739 93.2839 101.637 94.6589 102.884 95.7089C108.31 100.28 109.385 106.976 111.33 113.171C112.401 116.583 108.955 119.864 104.57 120.037C103.54 120.078 102.483 119.451 101.479 120.188C99.7376 121.465 97.9536 123.012 95.6516 122.139C93.0746 121.162 90.7006 119.701 88.9116 117.509C84.5496 112.165 78.7596 108.339 74.2866 103.058C72.2646 104.436 72.6886 106.149 73.0586 107.442C74.8986 113.87 73.5846 120.253 72.6986 126.553C71.8726 132.427 63.2096 135.626 57.8586 132.347C55.5176 130.913 53.3226 129.23 51.1256 127.575C49.7526 126.541 48.7896 125.01 48.2476 123.492C46.0876 117.448 43.8776 111.369 44.3256 104.776C44.8396 97.2059 47.3326 90.1939 50.4966 83.3799C50.9266 82.4549 51.5876 81.9329 52.6056 81.8689C53.5086 81.3149 54.4146 81.5969 55.3226 81.8469C58.3566 83.2939 61.0246 85.3419 64.1076 86.7879C73.9646 91.4119 85.7956 83.5069 84.6336 72.8919C84.3016 69.8589 84.8676 66.7529 84.1126 63.7299C83.0546 57.7819 79.6726 53.6639 74.2646 51.0899C72.6346 50.3139 70.8976 49.7509 69.3926 48.7189C65.1276 47.1099 62.5136 47.7469 59.9506 51.4129C57.9426 54.2849 56.1116 57.2789 53.6736 59.8209C49.9166 63.7369 49.4486 68.2769 50.6316 73.3809C51.1296 75.5269 52.4166 77.6429 51.6686 80.0139Z" fill="white"/>
<path d="M51.6686 80.0139C49.7686 77.0949 49.4086 73.6919 49.0076 70.4019C48.5836 66.9279 48.7996 63.6189 51.5686 60.6199C54.5236 57.4189 57.0786 53.7979 59.4356 50.0509C61.7676 46.3439 66.1346 45.6779 70.0816 47.8629C67.6066 49.8079 63.6806 48.1819 61.6846 51.2899C59.0866 54.7029 56.7176 58.2819 54.1896 61.7409C50.7616 66.4299 51.2056 71.8279 53.2816 77.0809C53.9926 78.8809 55.5946 80.4329 54.7426 82.6389C54.0306 82.3809 53.3176 82.1229 52.6056 81.8639C52.2936 81.2479 51.9806 80.6309 51.6686 80.0139Z" fill="#F4F1F0"/>
<path d="M54.7426 82.6389C53.9426 80.9919 53.1466 79.3439 52.3416 77.6999C49.5726 72.0449 49.6247 66.1189 53.1537 61.2069C55.7017 57.6599 57.8377 53.7459 60.8827 50.5389C69.2757 45.9499 81.4887 51.8039 84.3487 61.8119C84.5087 62.3729 84.3827 63.0159 84.9707 63.3999C86.6277 71.1879 87.6136 78.9169 80.9746 85.1019C76.6856 89.0979 71.6346 90.4879 65.8516 88.6609C61.7456 87.3649 58.1066 85.2719 54.7426 82.6389Z" fill="#DD9C32"/>
<path d="M84.9695 63.3999C83.2585 61.2719 82.5945 58.5449 80.8555 56.4049C79.0795 54.2199 77.0036 52.5789 74.3196 51.7329C73.9116 51.6039 73.2986 51.728 73.0746 51.475C69.7946 47.78 66.0716 48.6239 62.2286 50.3089C61.8246 50.4859 61.3336 50.4669 60.8826 50.5379C63.1726 46.9759 66.7145 47.72 70.0815 47.863C72.5335 49.084 75.1825 50.028 77.3965 51.587C81.4535 54.447 84.8415 57.9319 84.9695 63.3999Z" fill="#E4B45F"/>
</svg>
