<svg width="151" height="168" viewBox="0 0 151 168" fill="none" xmlns="http://www.w3.org/2000/svg">
<path d="M81.579 50.5856C82.96 46.7466 84.423 42.9437 85.249 38.9177C86.045 35.0357 88.457 31.6656 88.926 27.6436C89.494 22.7856 90.6531 18.0447 92.59 13.5557C94.554 9.00465 97.53 5.10662 101.317 1.91662C103.903 -0.262384 108.63 -0.584382 111.264 0.955618C114.778 3.00962 117.293 8.09163 116.366 11.9656C115.147 17.0566 116.066 22.3376 114.772 27.4036C114.681 27.7606 114.953 28.2116 115.235 29.3226C117.349 27.2246 119.144 25.4247 120.961 23.6467C124.677 20.0087 130.239 19.0486 134.952 21.2126C137.353 22.3146 139.263 25.9326 138.554 28.9946C137.632 32.9756 136.374 36.7836 134.019 40.3516C131.613 43.9976 129.543 47.9566 127.328 51.7476C123.706 57.9446 119.036 63.4056 112.761 67.3606C110.604 68.7206 107.73 69.8036 107.005 73.2216C108.521 73.8946 110.12 73.8876 111.454 73.4936C119.083 71.2406 125.865 74.0606 132.797 76.5826C137.634 78.3426 141.486 81.6366 145.785 84.2176C148.131 85.6266 149.975 87.7686 150.629 90.6786C151.515 94.6176 149.451 97.2926 146.591 99.2336C140.134 103.617 133.018 105.561 125.062 105.273C118.957 105.053 113.632 102.781 108.047 100.717C111.432 104.899 114.713 109.022 117.959 113.176C122.186 118.586 126.11 124.262 131.06 129.069C133.783 131.713 134.148 137.733 131.574 141.973C131.097 142.758 130.687 143.544 130.281 144.363C129.067 146.807 127.181 147.788 124.684 146.705C117.428 143.556 109.747 140.924 104.083 135.133C99.716 130.669 96.336 125.446 94.3 119.33C93.289 116.293 91.899 113.036 88.558 110.942C87.743 112.112 87.892 113.367 88.12 114.428C89.291 119.885 89.419 125.318 88.201 130.782C88.042 131.498 88.302 132.296 88.258 133.05C87.718 142.315 87.4 151.606 85.311 160.706C85.142 161.443 85.027 162.222 84.699 162.889C82.404 167.547 78.564 168.907 73.665 166.834C67.097 164.054 64.178 158.312 62.303 152.055C60.089 144.664 60.144 137.145 61.009 129.401C61.816 122.183 63.566 115.313 65.543 108.426C65.892 107.212 65.994 105.997 65.879 104.789C65.744 103.364 66.707 101.415 64.862 100.679C63.317 100.062 61.961 101.301 60.797 102.282C56.478 105.923 52.217 109.632 47.896 113.269C42.85 117.516 38.575 122.473 34.738 127.791C33.278 129.814 31.4621 131.426 29.7751 133.192C29.2591 133.732 28.598 134.296 27.905 134.479C24.252 135.445 20.609 136.593 16.884 137.097C13.371 137.572 11.994 136.026 11.565 132.372C11.18 129.095 11.959 125.901 12.884 122.896C14.651 117.156 17.417 111.895 22.044 107.763C26.263 103.994 29.973 99.7057 34.43 96.1367C36.925 94.1396 39.916 93.5026 42.429 91.8036C43.271 91.2346 44.528 91.1896 45.035 89.2786C41.929 89.2786 38.972 89.2466 36.016 89.2886C33.701 89.3206 31.409 89.3676 29.334 88.0756C28.388 87.4866 27.303 87.3846 26.22 87.4456C20.582 87.7616 14.911 86.7896 9.28305 88.2056C6.72905 88.8486 4.16204 87.5786 1.70004 86.9036C0.192038 86.4896 -0.311976 85.1006 0.185024 83.1766C2.69102 73.4886 10.5201 64.6116 21.2751 63.5406C29.0321 62.7676 36.7351 63.2756 44.3011 65.5396C47.0641 66.3656 49.948 67.5486 52.971 65.6866C54.381 64.8176 55.687 65.5826 55.736 67.4686C55.792 69.6156 55.729 71.7656 55.77 73.9127C55.793 75.0966 55.465 76.4257 56.815 77.2017C56.954 77.3577 57.093 77.5137 57.234 77.6677C58.211 80.0807 57.823 83.0806 60.33 84.8336C64.925 89.5326 68.379 95.3956 75.002 97.9816C77.921 99.1216 80.467 99.4346 83.219 98.0306C88.378 95.6426 92.646 92.1906 95.854 87.4706C99.791 81.5016 97.3941 74.8716 97.827 68.5456C97.301 60.8636 92.619 56.5426 85.985 53.7046C84.334 52.9976 81.855 53.2926 81.579 50.5856Z" fill="white"/>
<path d="M59.6049 61.7026C58.1829 61.9806 57.5519 63.5106 55.9109 64.0686C53.1279 58.2896 50.4289 52.5506 48.1979 46.5936C46.7539 42.7376 45.2169 38.9156 43.8169 35.0446C41.1419 27.6476 41.9569 19.9386 42.0179 12.3256C42.0479 8.6036 45.5839 5.1256 49.2989 4.5466C54.5609 3.7266 61.2859 7.26665 63.0639 12.2636C65.6829 19.6216 69.4469 26.4406 72.6439 33.5216C74.5319 37.7046 76.1959 41.9686 77.9679 46.1926C79.2969 49.3606 79.2539 49.3786 75.9849 51.4196C74.1849 53.2646 71.1909 53.0246 69.5369 55.1236C66.0269 57.0126 63.4919 60.3816 59.6049 61.7026Z" fill="white"/>
<path d="M83.5678 98.7566C81.3428 101.072 78.8708 100.822 76.0998 99.7626C69.7858 97.3486 65.3068 92.8276 61.4148 87.5466C60.8858 86.8276 60.2238 86.2076 59.6228 85.5406C57.3878 83.2066 57.5339 80.0566 56.7699 77.2176L56.8119 77.2026C56.5679 73.8556 57.0298 70.5396 57.1988 67.2086C57.2848 65.5276 57.9479 64.3186 59.2829 63.3986C59.6499 63.1176 60.0399 63.0686 60.4549 63.2856C62.2509 66.2986 62.6598 69.0676 60.0608 72.0806C58.1998 74.2386 60.2638 80.9576 62.9048 82.5106C63.6838 82.9686 64.6458 83.1276 65.1468 83.9916C65.0158 84.7056 64.4638 85.4956 65.4878 86.0356C66.0998 89.6066 67.4548 92.4366 71.7088 92.5116C74.5038 92.5606 73.5259 97.6996 77.2549 96.6086C79.5259 95.9436 81.9518 94.8056 83.7818 97.5336C83.8918 97.9716 83.8098 98.3786 83.5678 98.7566Z" fill="#E0A441"/>
<path d="M68.7871 54.5316C70.5961 52.1286 73.1671 51.4866 75.9861 51.4196C77.9641 51.9036 79.7161 50.8716 81.5791 50.5856C82.8241 51.8336 84.5721 51.9077 86.0901 52.5167C93.3011 55.4117 98.3851 60.0336 98.9411 68.3336C96.2261 68.0656 95.8941 65.5606 94.8771 63.8196C89.5321 54.6686 81.4431 51.5356 71.5171 54.9186C70.5561 55.1496 69.6241 55.1686 68.7871 54.5316Z" fill="#F4F1F0"/>
<path d="M68.7871 54.5316C69.6431 54.3636 70.4991 54.1966 71.3561 54.0286C71.2031 57.7736 67.8661 59.0516 65.5601 60.8516C64.1561 61.9476 62.3051 63.0036 60.3701 63.4686C60.0091 63.4456 59.6481 63.4216 59.2861 63.3986C59.3921 62.8336 59.4981 62.2676 59.6051 61.7026C62.0791 58.5606 65.4381 56.5526 68.7871 54.5316Z" fill="#E3AE54"/>
<path d="M60.3701 63.4677C61.4041 61.2307 64.0361 61.0867 65.4231 59.8247C67.4181 58.0097 69.9221 56.4896 71.3561 54.0286C79.1531 49.6766 90.0721 53.5826 94.8611 61.2806C96.2991 63.5916 96.9821 66.3326 98.9421 68.3326C99.4451 71.9296 99.1351 75.5626 99.5651 79.1906C99.9611 82.5296 98.4021 85.6467 96.3701 88.3817C92.8651 91.2737 90.0881 95.2357 85.1491 96.0097C84.9321 96.1257 84.5851 95.9936 84.4851 96.3536C84.7221 96.3326 84.9441 96.4196 85.1531 96.6166C85.3241 98.2406 84.5931 98.2826 83.4451 97.5916C81.9281 96.8116 80.5191 96.3986 78.7321 97.2156C74.8241 99.0016 72.6541 97.5656 72.4361 92.8416C70.4681 95.1916 69.0951 93.6236 67.6441 92.4716C65.3891 90.6816 63.9911 88.5596 64.9431 85.5236C64.6591 85.3916 64.5571 85.2457 64.6341 85.0847C64.7151 84.9167 64.7981 84.8317 64.8871 84.8317C64.5371 84.0397 63.8741 83.7917 63.0661 83.7117C60.5451 83.4607 59.2401 82.2046 59.4051 79.5156C59.4571 78.6596 59.1411 77.7007 58.7481 76.9107C57.4741 74.3497 56.8171 72.0376 60.1151 70.4216C60.9951 69.9906 61.0581 69.1416 60.9011 68.0786C60.6781 66.5596 59.6671 65.0947 60.3701 63.4677Z" fill="#DD9C32"/>
<path d="M83.446 97.5916C83.81 97.3506 85.1221 97.9886 84.3101 96.6586C84.1241 96.4526 84.058 96.2447 84.113 96.0327C84.168 95.8197 84.2261 95.7126 84.2861 95.7126C87.3911 94.8506 90.1841 93.6907 92.1591 90.7927C92.9781 89.5907 94.9321 89.1626 96.3701 88.3826C96.0071 90.5156 94.3771 91.6886 92.8151 92.8146C90.7581 94.2966 88.4451 95.4076 87.2191 97.8586C86.4361 99.4236 84.8601 98.7377 83.5671 98.7567C83.5271 98.3677 83.487 97.9796 83.446 97.5916Z" fill="#E5B661"/>
<path d="M56.7721 77.2166C58.3471 79.7766 58.1941 82.9296 59.6251 85.5396C56.6011 83.4756 56.5861 80.3806 56.7721 77.2166Z" fill="#F5F2F1"/>
<path d="M64.8889 84.8327C64.8999 85.0647 64.9189 85.2957 64.9459 85.5257C64.6939 85.6897 64.4489 85.8657 64.1879 86.0147C63.6559 86.3187 62.9489 86.6547 62.7009 85.8797C62.3719 84.8547 63.173 84.6567 63.999 84.6937C64.297 84.7067 64.5919 84.7847 64.8889 84.8327Z" fill="#ECCD90"/>
<path d="M64.5591 73.3037C64.6671 73.2027 64.7771 73.0127 64.8831 73.0147C65.9791 73.0337 66.923 73.3707 67.332 74.4917C67.394 74.6607 67.15 75.0726 66.946 75.1796C66.46 75.4346 66.1351 75.1507 64.5591 73.3037Z" fill="#E3AF55"/>
<path d="M84.2861 95.7126C84.2941 96.0276 84.303 96.3427 84.311 96.6577C83.957 96.5267 83.8141 96.2956 83.9521 95.9976C84.0071 95.8776 84.1711 95.8066 84.2861 95.7126Z" fill="#E0A441"/>
</svg>
