<svg width="129" height="122" viewBox="0 0 129 122" fill="none" xmlns="http://www.w3.org/2000/svg">
<path d="M108.743 30.4737C109.828 30.4857 110.84 30.1567 111.887 29.9147C119.381 28.1817 123.948 30.8467 127.235 37.7587C130.186 43.9647 127.104 47.9237 122.433 49.7867C114.778 52.8397 107.232 56.2047 99.2379 58.4007C96.0159 59.2857 92.9509 60.7897 89.8799 62.1587C88.4039 62.8167 88.4819 64.0437 90.0279 64.8017C91.9279 65.7337 93.8659 66.6477 95.8789 67.2697C97.1519 67.6627 98.2369 68.0357 98.5419 69.4147C98.8349 70.7357 99.8769 71.0247 100.909 71.2627C103.933 71.9607 104.828 75.5597 107.822 76.2697C107.763 79.2687 110.646 80.7537 111.443 83.3247C112.73 87.4807 110.774 93.5997 107.022 96.3077C103.168 99.0887 99.0449 100.759 94.2229 98.6137C92.5509 97.8697 90.7659 97.3687 89.0089 96.8337C88.0828 96.5517 87.4038 96.0877 86.8448 95.2747C83.8799 90.9607 79.9829 87.6027 75.7229 84.6327C75.3439 84.3687 74.9389 84.1557 74.0309 84.6807C73.4199 86.5267 73.3479 88.9107 73.9349 90.9927C75.7959 97.6037 74.2979 104.127 73.4629 110.559C72.4439 118.404 64.4059 123.358 57.4129 120.42C54.6829 119.273 51.6569 117.001 50.5799 113.458C48.8959 107.914 47.0719 102.412 45.3779 96.8707C45.1169 96.0167 45.2309 95.0477 45.1709 94.1317C44.6349 86.0127 46.5179 78.3757 49.7829 71.0137C51.4359 70.3907 52.2859 71.7037 53.3059 72.5207C59.5079 77.4907 63.4028 77.3607 69.3058 71.9357C70.4008 70.6047 71.8449 69.8147 73.4089 69.1537C82.3369 65.3827 86.2749 53.8167 81.2659 45.6407C79.6939 43.0747 78.0449 40.4787 75.7679 38.4067C69.4769 33.0667 61.1009 32.0147 54.8709 35.8057C53.5959 37.1217 52.2079 38.3167 50.7839 39.4557C48.3479 41.4057 47.2369 43.8577 47.2769 46.9987C47.3549 53.0577 46.5939 59.1827 48.9799 65.0207C49.0629 66.4037 49.6089 67.8057 48.8529 69.1627C46.1269 73.3837 41.8769 75.9877 38.1029 79.0537C35.5409 81.1347 32.8999 83.0987 29.7659 84.5647C27.0529 85.8347 24.5799 88.0757 22.6129 90.8237C20.5849 93.6567 18.4599 96.7057 14.0579 97.0477C10.8499 97.2977 9.65187 98.0777 7.73487 97.7147C3.15887 96.8467 0.3039 93.5477 0.0329003 88.7797C-0.1271 85.9687 0.272909 83.0037 1.75391 80.8317C4.03991 77.4777 5.81887 73.7287 8.88587 70.8857C11.4109 68.5447 13.8919 66.1717 16.8839 64.4407C18.5909 63.4537 19.5519 61.8307 20.3399 60.2347C21.8179 57.2437 23.9939 55.1467 26.9279 53.6737C28.0109 53.1297 28.9889 52.3537 29.9539 51.6057C30.7449 50.9927 31.2249 50.1737 30.3219 49.3027C28.5799 47.6227 26.8439 45.6927 25.5629 43.8817C22.3979 39.4077 16.8819 36.8727 15.7079 30.6447C14.3609 23.4907 18.0969 18.3387 25.2779 17.1087C29.3649 16.4087 31.8789 18.4627 34.7989 19.9477C37.3529 21.2467 39.4889 23.2557 42.6109 23.4357C43.4569 23.4847 44.2369 24.6887 45.0569 25.3717C46.5129 24.8957 46.0959 23.6307 46.0609 22.6677C45.8299 16.2847 47.5829 10.3567 49.6429 4.38867C51.4299 -0.789328 58.3459 -1.37933 61.0169 2.58667C63.9109 6.88367 67.0379 11.0117 67.4469 16.4827C67.5559 17.9397 68.2619 19.3527 68.7829 21.0787C71.1689 20.1377 71.9189 18.1247 72.7739 16.2747C76.6789 7.83367 83.7909 3.53068 92.3369 1.14268C94.2759 0.600678 95.9679 1.69667 97.3079 2.98967C99.0629 4.68367 101.046 6.18967 102.296 8.35967C104.419 15.4087 102.084 22.0817 100.556 28.8197C100.238 30.2207 98.4109 31.6177 99.6029 32.9327C101.009 34.4847 102.63 32.7467 104.139 32.3137C105.409 31.0467 107.235 31.1557 108.743 30.4737Z" fill="white"/>
<path d="M104.136 32.3177C102.635 34.2557 100.379 34.0847 98.1938 34.4957C97.0258 32.5307 98.0328 30.5157 99.0188 29.4137C101.721 26.3947 99.6208 22.2887 101.844 19.2007C102.447 18.3637 100.236 17.5707 100.214 16.2467C101.014 15.4717 101.969 16.9397 102.961 15.7647C102.047 13.5147 102.337 10.9297 102.294 8.36467C104.29 12.0137 103.731 16.2487 104.955 20.0817C105.115 20.5827 104.987 21.4627 104.637 21.7947C101.643 24.6437 101.957 28.6897 100.691 32.2507C101.849 32.9787 103.019 32.0097 104.136 32.3177Z" fill="#F9F8F7"/>
<path d="M69.9559 72.6287C65.4409 78.0757 58.696 78.7767 53.562 74.3257C52.296 73.2287 51.3439 71.7747 49.7819 71.0157C49.7649 70.4177 49.748 69.8207 49.731 69.2227C49.936 69.1357 50.1409 69.0487 50.3459 68.9597C50.4939 68.9847 50.6929 68.9577 50.7839 69.0447C56.1759 74.1967 62.1649 75.9557 69.1349 72.3327C69.3469 72.2207 69.6949 72.4617 69.9559 72.6287Z" fill="#F4F1F0"/>
<path d="M108.743 30.4737C107.445 31.6817 105.772 31.9537 104.136 32.3177C105.057 30.1677 106.966 30.4857 108.743 30.4737Z" fill="#F9F8F7"/>
<path d="M48.851 69.1657C48.195 67.9407 47.707 66.6817 48.061 65.2527C50.059 65.8487 50.658 67.1247 49.909 69.0547L49.73 69.2217C49.438 69.1867 49.145 69.1687 48.851 69.1657Z" fill="#F4F1F0"/>
<path d="M49.9088 69.0547C49.5238 67.6747 48.9168 66.4037 48.0598 65.2527C44.7608 58.6837 46.5388 51.6117 46.0778 44.7657C45.9738 43.2307 46.7608 41.6997 47.8598 40.6857C49.9658 38.7427 51.7338 36.3897 54.3408 35.0177C62.3158 31.2847 69.5949 33.1647 76.5359 37.7687C86.6109 47.9447 86.4908 55.0187 80.4188 66.5437C79.5728 68.1497 77.8498 69.0337 75.9878 69.5887C73.8238 70.2337 71.4719 70.6447 69.9549 72.6287C68.6899 73.1597 67.3588 73.5737 66.1718 74.2437C61.7148 76.7587 57.6608 76.1707 53.9198 72.8207C52.5548 71.5977 51.2448 70.3117 49.9088 69.0547Z" fill="#DD9C32"/>
<path d="M76.5368 37.7697C75.7288 37.8497 75.1058 37.4687 74.4238 37.0767C68.6438 33.7497 62.6098 32.5537 56.1508 34.9907C55.6198 35.1907 54.9488 35.0187 54.3418 35.0187C54.5038 34.6037 54.5488 33.9617 54.8468 33.8067C60.8868 30.6597 72.0268 32.7207 76.5368 37.7697Z" fill="#EFD5A2"/>
</svg>
