<svg width="117" height="153" viewBox="0 0 117 153" fill="none" xmlns="http://www.w3.org/2000/svg">
<path d="M53.6315 56.2697C52.1105 55.6837 51.9054 54.2737 51.4874 52.9537C48.0544 42.1097 46.2575 31.0327 46.2015 19.6317C46.1755 14.2627 47.9125 9.42171 49.6055 4.51171C50.0675 3.17071 50.9925 2.12371 52.0635 1.22971C54.2625 -0.605287 56.7564 -0.375289 58.4964 1.84371C58.9634 2.43871 59.3814 3.12671 59.6164 3.83971C61.7634 10.3647 63.9314 16.8757 64.7124 23.7657C65.7094 32.5677 66.2214 41.3977 66.6084 50.2397C66.6174 50.4487 66.9374 50.6447 67.1214 50.8567C68.3144 50.7637 68.4834 49.6847 68.7734 48.9127C71.5474 41.5237 76.0605 35.0817 80.5585 28.7717C83.9625 23.9977 88.3264 19.7817 93.2344 16.3397C95.8134 14.5307 98.6444 13.5277 101.879 13.8867C104.736 14.2037 105.783 15.3407 106.17 18.2327C106.894 23.6477 104.635 28.4197 102.842 33.2007C99.5655 41.9407 95.3754 50.2587 89.3694 57.5077C87.3244 59.9767 85.0195 62.2297 82.8265 64.5887C83.4535 66.0957 84.7964 65.6277 85.5954 65.4007C88.7514 64.5047 92.0014 64.9007 95.1525 64.4537C100.541 63.6887 105.463 65.1817 110.211 67.1697C115.299 69.2997 116.811 73.3917 115.694 78.8077C113.93 87.3627 110.366 88.9297 101.89 90.2687C99.5334 90.6407 97.0364 90.5817 94.6044 89.7767C92.4074 89.0487 90.0544 89.4117 87.4824 89.5647C87.9124 91.8117 89.6064 93.1347 91.1134 94.0267C95.7804 96.7877 98.3124 101.497 101.906 105.214C104.333 107.723 106.34 110.657 108.395 113.503C110.556 116.496 110.265 119.108 107.925 121.306C106.668 122.487 105.27 122.772 103.688 122.497C97.2215 121.37 91.5384 118.591 86.4524 114.454C83.3784 111.954 80.3714 109.384 77.2704 106.322C76.2764 107.983 76.4915 109.56 76.7745 110.899C78.4475 118.808 79.3984 126.83 80.1324 134.849C80.5134 139.005 80.0954 143.334 78.4134 147.327C76.9714 150.748 73.9254 151.693 70.6114 152.065C64.4714 152.754 60.0244 149.807 56.4924 145.197C53.6814 141.528 51.3065 137.605 50.8425 132.834C50.5895 130.231 49.5054 127.826 48.8794 125.314C47.1864 118.53 48.4585 111.933 49.4935 105.322C49.7915 103.416 49.6244 101.293 50.8744 99.5757C55.5844 98.8397 60.3354 99.6427 65.0414 99.2347C70.8954 98.7267 75.8794 96.3747 79.4994 91.5697C86.0604 82.3997 83.2844 65.0207 74.1984 58.5267C67.7734 53.8087 60.8435 53.7587 53.6315 56.2697Z" fill="white"/>
<path d="M46.2604 94.0417C43.1184 97.8647 38.7924 100.265 34.9964 103.29C30.6024 106.791 25.6834 109.595 21.0624 112.799C17.2834 115.419 12.8184 117.347 8.08543 118.29C2.57443 119.388 -0.843576 116.44 0.330424 111.094C0.812424 108.898 1.59543 106.511 2.98643 104.827C5.59343 101.671 7.50445 98.0557 10.4154 95.0537C14.6214 90.7167 19.8704 86.3477 26.0804 83.7377C27.9154 82.9667 28.9034 80.9027 31.0784 80.8387C30.9044 80.2057 30.8204 79.7007 30.7574 79.7037C25.8814 79.9047 21.5744 77.5907 17.2644 76.0207C12.7364 74.3717 9.05441 70.7617 6.01341 66.8607C3.83841 64.0707 2.29844 60.8597 0.923442 57.6157C-1.85256 51.0677 1.87945 45.6567 8.78245 45.1317C17.9095 44.4377 25.3885 48.5767 32.9905 52.4667C37.4815 54.7647 41.7795 57.4367 46.1835 59.9067C47.0155 60.3737 47.7164 60.9097 48.1014 61.7987C46.3194 67.2757 46.8435 73.2397 44.3915 78.6067C42.6815 82.3477 43.6854 86.1127 45.0614 89.7787C45.5774 91.1587 46.8894 92.3327 46.2604 94.0417Z" fill="white"/>
<path d="M46.2605 94.0417C42.3835 88.4177 40.7845 82.5717 44.0875 76.0247C44.9645 74.2877 45.5775 72.3057 45.3155 70.2517C44.8985 66.9807 46.1025 64.2637 48.0985 61.7977C48.3905 61.7857 48.6815 61.7657 48.9725 61.7377C49.1165 61.9177 49.2595 62.0987 49.4055 62.2777C47.8385 67.8117 47.3305 73.5777 45.6145 79.0917C42.5895 88.8167 50.0735 98.0977 60.2525 98.3507C66.9865 98.5187 72.5025 96.6327 77.3785 92.2457C78.0635 91.6297 78.8425 91.1377 79.8065 91.0597C80.0175 91.1537 80.2285 91.2487 80.4395 91.3447C80.3515 92.4097 80.4425 93.5947 79.4605 94.2957C75.8345 96.8827 72.0735 99.6967 67.7025 100.284C62.7445 100.951 57.6165 100.369 52.5635 100.264C51.9955 100.252 51.4355 99.8157 50.8715 99.5757C49.3345 97.7307 47.7975 95.8857 46.2605 94.0417Z" fill="#F4F1F0"/>
<path d="M53.6315 56.2697C55.8325 53.1147 59.1335 53.4967 62.3615 53.4767C67.1275 53.4467 71.4375 54.5567 74.9245 58.0127C74.7545 58.1667 74.5835 58.3197 74.4135 58.4757C74.1195 58.5737 73.7725 58.7287 73.5235 58.6147C67.1955 55.7267 60.7665 54.9007 54.1475 57.5967C53.9625 57.4607 53.7775 57.3227 53.5925 57.1847C53.6105 56.8797 53.6235 56.5747 53.6315 56.2697Z" fill="#F4F1F0"/>
<path d="M48.9734 61.7367C49.3334 59.6227 50.5484 58.3777 52.6924 58.0757C52.7684 58.2877 52.8444 58.4997 52.9204 58.7127C52.3524 60.5917 51.3694 61.9797 49.1454 61.8957L48.9734 61.7367Z" fill="#F4F1F0"/>
<path d="M52.6924 58.0757C52.9924 57.7777 53.2924 57.4807 53.5924 57.1827L53.7664 57.3457C53.7984 57.9987 53.4894 58.3007 52.8364 58.2467L52.6924 58.0757Z" fill="#F4F1F0"/>
<path d="M48.8525 120.31C49.9025 119.219 50.4915 119.71 51.0585 119.761C52.3565 119.877 53.6815 119.788 54.1395 118.395C54.5625 117.109 53.3895 116.573 52.4625 116.012C50.5445 114.851 51.0085 113.658 52.3885 112.375C55.3475 109.624 55.3305 109.606 53.2725 106.664C54.1135 105.615 55.8565 106.391 56.5085 105.286C58.7405 101.506 62.3505 102.999 65.4585 102.932C67.9725 102.878 72.2085 107.798 71.6075 110.305C70.6865 114.15 72.4635 117.171 73.9745 120.238C74.8535 122.022 75.8255 123.392 73.8975 124.992C73.2945 125.493 72.9185 126.27 73.0305 127.044C73.5945 130.952 74.0645 134.889 74.9505 138.727C75.2095 139.847 75.6905 141.012 75.9365 142.192C76.7015 145.855 73.9255 148.616 70.1845 147.925C69.5865 147.815 68.9595 147.43 68.4145 147.533C63.0495 148.547 61.0455 144.099 58.0985 141.219C57.7075 140.837 57.3005 139.988 57.4675 139.597C58.8685 136.308 56.6775 134.474 54.7945 132.452C54.2945 131.915 53.9695 131.186 53.6615 130.503C52.1205 127.092 51.5935 123.242 48.8525 120.31Z" fill="white"/>
<path d="M102.73 83.0267C100.886 82.7397 99.1754 83.4247 97.7274 84.6027C94.5274 87.2077 91.1324 86.0547 87.7744 85.2347C86.7304 84.9797 85.6484 84.2617 86.4494 82.9127C87.4364 81.2497 87.1954 79.7707 86.3114 78.1857C85.6104 76.9287 85.9124 75.4977 85.9074 74.1317C85.9024 72.9007 86.4014 72.1427 87.7344 71.9697C90.6044 71.5967 93.3344 70.9067 95.9174 69.4127C98.2664 68.0537 100.397 71.4047 102.23 70.6727C104.547 69.7467 106.428 69.5197 108.634 70.4317C110.635 71.2587 111.091 72.4757 110.003 74.3757C109.401 75.4257 109.028 76.5607 108.891 77.8247C108.432 82.0347 107.061 83.1527 102.73 83.0267Z" fill="white"/>
<path d="M79.0273 99.1827C79.7013 97.5807 80.7673 96.7047 81.9583 96.0317C83.8953 94.9377 85.9653 95.4407 86.7893 97.5767C87.6523 99.8167 88.9683 100.599 91.2643 100.58C93.1563 100.564 94.7323 102.083 94.8013 103.61C94.9253 106.35 96.3793 108.481 97.1293 110.91C97.3973 111.778 97.9383 112.934 96.6813 113.178C94.7553 113.552 92.1803 114.205 90.9373 112.833C89.0043 110.7 86.6413 109.636 84.3043 108.292C82.9403 107.508 82.1263 105.859 82.3043 104.365C82.6313 101.617 81.1273 100.216 79.0273 99.1827Z" fill="white"/>
<path d="M74.9235 58.0127C77.1825 58.5817 78.5455 60.0927 79.4215 62.1797C80.4205 64.5587 81.4885 66.9087 82.5285 69.2707C85.0795 75.0637 84.1765 81.1117 83.6705 87.0837C83.5165 88.9027 82.0925 90.3557 80.4385 91.3447L80.1335 91.1027C78.7405 88.3687 80.8985 86.1567 81.3285 83.7097C82.6785 76.0157 80.0625 69.3597 76.5605 62.8457C75.7835 61.3997 74.4745 60.1797 74.6365 58.3337L74.9235 58.0127Z" fill="#F4F1F0"/>
<path d="M102.56 113.678C102.737 113.876 103.046 114.063 103.062 114.274C103.091 114.645 102.797 114.764 102.459 114.566C102.338 114.496 102.226 114.363 102.173 114.234C102.036 113.891 102.181 113.699 102.56 113.678Z" fill="white"/>
<path d="M74.6375 58.3317C82.3805 68.2637 85.6005 78.9547 80.1345 91.1017C77.6275 94.0647 74.5646 96.1997 71.0456 97.8847C65.2946 100.639 59.4586 99.3107 53.6136 98.7257C53.0286 98.6667 52.4205 98.4027 51.9095 98.0917C45.4565 94.1607 42.2935 85.3017 44.7185 78.0847C45.2045 76.6377 45.9775 75.1607 45.9735 73.6997C45.9615 69.4377 47.4445 65.6547 49.1465 61.8957C50.3765 60.6797 51.6066 59.4637 52.8376 58.2477C53.3376 58.1437 53.6335 57.8277 53.7685 57.3467C60.9555 52.7817 67.8405 54.6247 74.6375 58.3317Z" fill="#DD9C32"/>
</svg>
