<svg width="121" height="155" viewBox="0 0 121 155" fill="none" xmlns="http://www.w3.org/2000/svg">
<path d="M47.2623 66.1154C43.3243 68.7844 43.8243 73.0424 43.9403 76.8124C44.0663 80.9025 45.2683 84.9344 46.9363 88.7454C47.8463 90.8244 47.4852 92.5055 45.6003 93.9105C38.7533 99.0115 32.5973 105.022 25.1643 109.357C24.1233 109.964 23.1463 110.772 22.3353 111.665C19.1733 115.147 15.0093 116.801 10.5913 117.307C7.63028 117.646 4.53427 116.753 2.12927 114.54C-0.306728 112.299 -0.505748 111.334 0.790252 107.916C0.951252 107.493 0.989254 107.024 1.10525 106.583C4.21125 94.7814 11.8903 87.2014 22.9403 82.5464C26.3983 81.0894 29.5843 78.9874 33.0793 77.0794C30.9723 74.8954 28.5133 74.4244 26.2553 73.6724C17.4803 70.7505 10.3093 65.5094 4.29327 58.6244C1.25227 55.1444 1.39925 51.5675 4.14325 47.7875C5.82925 45.4655 7.82528 43.3924 8.96628 40.6134C9.78128 38.6284 11.6173 37.2844 14.1373 37.4994C15.9793 37.6564 17.7533 37.1254 19.5633 36.8244C24.0303 36.0814 27.9082 38.1655 31.7122 40.1315C32.8862 40.7384 33.8473 41.7594 35.6993 41.7324C33.4693 36.5204 31.3073 31.5214 29.4323 26.4044C27.3473 20.7164 27.1323 14.7575 26.0853 8.92745C25.5423 5.90145 27.5803 3.74144 29.8943 2.04644C30.9113 1.30144 31.8563 1.85845 32.8453 2.44645C37.3413 5.11845 40.2133 9.24345 42.9863 13.4855C49.7743 23.8685 54.8603 35.1714 60.6833 46.0764C61.1553 46.9614 61.2863 48.1305 62.8253 48.6855C62.8253 47.0615 62.8293 45.5955 62.8243 44.1295C62.7923 34.4665 63.8092 24.8874 66.7383 15.6954C68.3313 10.6964 70.0993 5.54145 74.1813 1.72245C77.2563 -1.15455 80.9443 -0.35755 82.3423 3.59045C82.5973 4.31045 82.9263 5.03444 83.0063 5.77944C84.1683 16.6104 84.1453 27.4794 83.9763 38.3504C83.9463 40.2674 82.4933 42.0715 83.4123 44.1795C85.0193 43.9325 86.0203 42.8084 86.4303 41.5964C87.5583 38.2594 90.4083 36.2445 92.2553 33.4725C95.8923 28.0145 102.182 26.5834 107.623 24.0894C113.113 21.5734 121.396 28.3265 120.569 35.4225C119.982 40.4645 118.083 44.3744 114.333 48.0424C110.798 51.5004 109.074 56.5105 107.201 61.2055C104.764 67.3165 100.432 71.5984 94.1733 73.8744C92.0603 74.6424 89.9283 74.2544 87.7993 74.2964C85.5713 72.2694 85.7143 68.7544 83.1573 66.9374C81.7323 65.7964 80.6983 64.2875 79.4403 62.9915C75.6033 59.0365 71.1133 57.1274 65.5583 58.6974C63.4483 59.0584 61.2873 58.7135 59.1883 59.1885C58.7943 59.3345 58.3903 59.4504 57.9863 59.5594C53.9903 60.5584 51.0643 63.1144 48.4383 66.1114C48.0473 66.3474 47.6543 66.3474 47.2623 66.1154Z" fill="white"/>
<path d="M88.6622 81.7645C93.5752 82.7545 96.8932 86.3854 100.303 89.4734C105.702 94.3634 111.282 99.2205 114.485 106.108C115.695 108.711 117.761 110.862 118.541 113.775C118.992 115.46 119.078 117.105 119.003 118.773C118.864 121.87 116.892 123.819 113.844 124.104C107.902 124.66 103.11 122.259 98.9452 118.293C96.7622 116.215 94.8352 113.816 91.8822 112.738C91.1902 113.628 91.6152 114.295 91.9972 114.958C96.8902 123.454 100.339 132.47 101.856 142.19C102.29 144.968 101.614 147.438 99.3122 149.039C96.8162 150.776 94.2632 149.946 92.0962 148.194C89.0172 145.705 85.6132 143.718 82.6932 140.923C76.7822 135.266 72.9062 128.62 70.4002 120.912C68.6702 115.59 66.3372 110.464 64.3082 105.34C62.5142 105.332 62.8142 106.535 62.8662 107.3C63.4212 115.454 61.9812 123.494 60.7492 131.436C59.7592 137.819 58.0862 144.316 54.4952 149.99C52.4262 153.259 49.5042 155.195 45.6272 154.415C42.1032 153.706 39.3732 151.718 37.8022 148.137C32.7642 136.644 34.4852 125.599 39.5992 114.696C42.7622 107.954 46.7962 101.703 50.4962 95.2065C51.8392 96.1205 53.3632 96.7464 54.2952 97.8654C57.9962 102.306 62.7082 101.235 67.4182 100.643C71.8012 100.092 75.7472 98.8044 78.5312 95.0724C79.8902 93.2514 82.3692 93.2915 84.0352 91.9485C84.1782 90.1645 85.4592 88.9395 86.2232 87.4595C87.6232 85.8135 87.0252 83.3075 88.6622 81.7645Z" fill="white"/>
<path d="M65.5853 57.7424C72.1703 55.4214 76.8833 58.6074 81.0493 63.1284C81.9613 64.1184 82.6443 65.3304 83.7623 66.1504C87.3703 72.5234 89.4473 79.1644 87.3283 86.5364C85.9853 88.3654 85.2343 90.6834 83.0073 91.7884C79.7743 91.9974 77.0793 93.3515 75.2273 95.9745C74.2513 97.3575 73.3593 98.3395 71.5433 97.9595C71.2873 97.9055 70.9553 98.1024 70.6863 98.2384C58.9333 104.181 51.7653 95.6054 47.6373 86.9225C44.4633 80.2465 43.8543 73.1134 47.2633 66.1154C47.4923 66.1234 47.7123 66.0794 47.9213 65.9844C50.3163 63.5804 52.2393 60.4995 56.4253 60.9185C57.3263 61.0085 57.1023 59.0604 58.1863 58.6414L58.1773 58.6495C59.3103 57.8995 60.2883 58.5424 61.2603 58.9754C62.0793 59.9534 61.7283 58.7045 61.9783 58.5525C63.0833 57.8095 64.5633 58.8094 65.5853 57.7424Z" fill="#DD9C32"/>
<path d="M86.6812 87.1365C88.6462 81.3485 87.2032 75.8515 85.2102 70.4185C84.6922 69.0065 83.8602 67.7055 83.7622 66.1515C86.5842 68.1365 87.3082 71.1605 87.7992 74.2995C89.0272 76.6795 88.5072 79.2615 88.6622 81.7655C88.6512 84.0735 88.8482 86.4395 86.8672 88.1985C86.3422 87.9245 86.2802 87.5705 86.6812 87.1365Z" fill="#F4F1F0"/>
<path d="M86.6814 87.1365C86.7434 87.4905 86.8044 87.8434 86.8664 88.1974C86.0354 89.5324 85.5513 91.1294 84.0363 91.9494C83.6933 91.8964 83.3503 91.8435 83.0063 91.7895C84.3903 90.3635 84.9654 88.2995 86.6814 87.1365Z" fill="#F1DAAD"/>
<path d="M58.1842 58.6405C57.0762 60.1135 58.5992 61.4704 58.5032 63.4924C55.0432 60.3524 52.5052 61.8734 50.1552 64.4754C49.5422 65.1544 48.8822 65.8045 47.9192 65.9835C49.9592 61.6055 53.5902 59.4505 58.1842 58.6405Z" fill="#E5B762"/>
<path d="M61.9203 59.6035C60.6723 59.2855 59.4243 58.9675 58.1763 58.6495C60.4513 56.7585 63.1253 58.1245 65.5853 57.7435C64.8493 59.3435 62.6863 58.1575 61.8883 59.6365L61.9203 59.6035Z" fill="#E5B762"/>
<path d="M61.8882 59.6355C62.0182 59.6995 62.2682 59.7894 62.2612 59.8244C62.1962 60.1264 62.0632 60.0485 61.9202 59.6035L61.8882 59.6355Z" fill="#E5B762"/>
</svg>
