<svg width="128" height="154" viewBox="0 0 128 154" fill="none" xmlns="http://www.w3.org/2000/svg">
<path d="M74.5218 54.6071C73.9958 53.3121 72.7068 53.0331 71.6378 52.4971C68.3308 50.8381 68.3367 50.8611 69.1787 47.1891C71.9867 34.9481 76.0048 23.1621 81.7708 11.9561C83.3948 8.79912 85.8058 6.51112 88.4018 4.50812C91.8278 1.86412 97.9678 5.08715 98.3948 9.81715C98.7928 14.2261 98.8468 18.7601 98.2788 23.1381C97.5188 29.0071 97.0267 34.9741 95.0227 40.6341C94.7647 41.3631 94.7157 42.3311 95.3767 42.7721C96.3647 43.4321 97.1228 42.5531 97.6858 41.8791C99.3838 39.8441 101.624 38.4551 103.713 36.9421C108.789 33.2661 113.01 35.2291 114.299 41.4161C114.843 44.0251 115.105 46.4741 114.236 49.0171C113.017 52.5821 113.382 56.4001 111.734 60.0341C109.384 65.2181 105.314 68.3791 101.157 71.7191C101.235 71.8521 101.368 72.3001 101.524 72.3081C106.246 72.5501 110.436 74.7421 114.096 77.1651C119.58 80.7951 125.724 84.1831 127.665 91.4101C128.228 93.5051 128.034 95.3601 126.908 97.1231C125.28 99.6701 122.922 101.647 120.976 103.912C119.107 106.087 115.722 105.213 112.959 104.032C105.674 100.92 98.3588 97.8781 91.0518 94.8171C90.5148 94.5921 89.9487 94.4381 89.0317 94.1281C89.6897 96.9151 91.5918 98.5021 92.9938 100.34C95.9478 104.212 99.3298 107.72 102.158 111.735C104.409 114.93 106.235 118.213 107.341 121.882C108.743 126.535 106.977 128.931 102.181 130.058C99.5498 130.676 97.0798 130.986 94.6288 129.76C90.9608 127.925 87.3457 126.102 83.2427 125.223C80.6227 124.661 78.9427 122.323 77.8937 119.872C76.1057 115.695 72.7378 112.374 71.9478 107.678C71.6008 107.737 71.2537 107.797 70.9067 107.856C70.9067 109.408 70.8448 110.963 70.9168 112.512C71.2478 119.596 69.4558 126.45 68.6168 133.403C68.4348 134.913 68.1938 136.414 68.1368 137.942C67.9678 142.459 66.3457 146.558 64.2777 150.47C62.9607 152.961 57.9288 154.08 54.7718 152.599C53.2748 151.896 51.6888 150.943 50.7118 149.668C48.8328 147.218 46.9538 144.906 44.3198 143.174C42.8868 142.231 42.3818 140.466 42.3588 138.696C42.3218 135.788 42.3438 132.938 43.2968 130.078C45.1288 124.583 46.8418 119.032 48.2338 113.413C49.0678 110.046 49.1948 106.552 51.2508 103.507C51.9688 102.444 51.7498 100.84 51.2678 99.4631C49.6228 99.1501 48.8158 100.169 47.9128 101.281C43.7428 106.417 38.5198 110.357 33.2788 114.327C30.1438 116.701 26.7738 118.262 23.0758 119.32C19.6748 120.293 16.5218 120.15 13.5168 117.9C10.7388 115.819 9.70275 113.214 10.2308 109.893C10.4218 108.692 11.0878 107.471 10.9528 106.328C10.1988 99.9811 13.8508 95.7121 17.6968 91.5201C19.1448 89.9411 20.5378 88.3471 21.8438 86.6321C24.2568 83.4621 27.3768 80.9551 31.5028 78.5791C26.6868 76.1551 22.3198 74.4531 17.6518 73.8111C10.4138 72.8151 7.52075 70.5811 5.53275 63.4531C5.07775 61.8221 3.96377 60.8891 3.00077 59.7291C-0.71123 55.2571 -0.890229 51.3951 1.97077 46.6611C3.81177 43.6151 6.81474 43.0341 9.78574 42.5781C12.0437 42.2321 14.1518 41.6961 16.3408 41.0571C19.7988 40.0471 23.5947 40.1241 27.2048 41.2691C29.2418 41.9151 31.2538 42.5771 33.4788 42.4851C36.5558 42.3571 38.7278 44.7031 41.5218 45.8621C42.6118 44.8351 42.3308 43.7111 41.9308 42.5431C40.9438 39.6571 40.0708 36.7281 38.9878 33.8791C35.8238 25.5591 36.0017 16.8491 35.9407 8.17811C35.9247 5.87211 36.5718 3.63909 38.2548 1.86109C40.4408 -0.449909 42.7208 -0.634868 45.0738 1.45313C46.0958 2.35913 47.1158 3.28913 47.7448 4.57813C50.0158 9.23913 52.1058 13.9751 54.0028 18.8031C57.7458 28.3261 61.6098 37.7991 64.3028 47.7011C65.3948 51.7161 65.5438 51.6881 61.3048 52.6221C60.6368 52.7691 60.2248 53.1311 59.9287 53.6971C58.0807 57.0211 54.5877 58.9301 52.7727 62.3841C50.8417 66.0621 48.9708 69.7131 48.0818 73.7801C45.4768 85.7031 55.6007 95.6981 67.3717 92.3641C75.2497 90.1321 80.9558 84.9761 83.4698 76.8191C85.7278 69.4931 83.1378 63.7251 77.8788 58.7251C76.5908 57.5081 74.7018 56.7371 74.5218 54.6071Z" fill="white"/>
<path d="M74.5219 54.6071C78.4499 57.5061 82.1208 60.4831 84.1538 65.2631C86.9158 71.7571 85.6008 77.8431 82.0548 83.1171C79.0418 87.5981 74.8388 91.4301 69.3248 93.1701C64.6658 94.6401 59.9698 94.9901 55.6248 92.4581C47.1088 87.4961 44.6579 81.0351 47.3929 71.5551C48.5819 67.4341 50.6238 63.6611 52.8918 60.0061C54.6398 57.1881 57.1138 55.2811 59.9238 53.6981C60.2268 53.6981 60.5438 53.7571 60.8298 53.6871C65.4918 52.5521 70.0669 52.6741 74.5219 54.6071Z" fill="#DD9C32"/>
</svg>
