<svg width="462" height="293" viewBox="0 0 462 293" fill="none" xmlns="http://www.w3.org/2000/svg">
<path d="M298.318 79.8408V193.841" stroke="#4E2E36" stroke-width="6"/>
<path d="M128.318 165.841V79.8408" stroke="#4E2E36" stroke-width="6"/>
<path d="M342.318 79.8408L213.318 15.8408L84.3185 79.8408" stroke="#4E2E36" stroke-width="6"/>
<path d="M86.8185 2.34082C18.0396 37.3714 -13.6815 168.341 172.819 168.341C224.445 168.341 268.025 178.187 300.876 192.27C453.73 212.455 562.897 296.657 300.785 289.646C297.584 289.614 294.262 289.513 290.818 289.341C294.199 289.457 297.521 289.558 300.785 289.646C398.423 290.622 383.976 227.893 300.876 192.27C250.353 185.598 195.057 185.92 146.819 198.841C-49.1814 251.341 -21.1815 42.8408 86.8185 2.34082Z" fill="#BDF7E8"/>
<path d="M86.8185 2.34082C18.0396 37.3714 -13.6815 168.341 172.819 168.341C359.319 168.341 440.818 296.841 290.818 289.341C655.318 301.841 342.818 146.341 146.819 198.841C-49.1814 251.341 -21.1815 42.8408 86.8185 2.34082Z" stroke="#84D1BF" stroke-width="5" stroke-linecap="round"/>
<path d="M311.729 284.58C310.274 284.861 308.955 284.588 307.775 283.762C306.595 282.936 305.863 281.79 305.58 280.323C305.296 278.847 305.548 277.505 306.336 276.299C307.125 275.094 308.247 274.35 309.703 274.07C311.159 273.789 312.477 274.062 313.657 274.888C314.838 275.714 315.57 276.865 315.855 278.342C316.138 279.809 315.885 281.145 315.096 282.35C314.308 283.556 313.185 284.299 311.729 284.58ZM309.827 274.714C308.57 274.956 307.609 275.603 306.942 276.655C306.287 277.705 306.084 278.879 306.334 280.178C306.583 281.466 307.207 282.476 308.206 283.206C309.213 283.925 310.345 284.163 311.602 283.92C312.87 283.676 313.832 283.034 314.49 281.995C315.146 280.945 315.349 279.776 315.101 278.488C314.851 277.189 314.226 276.174 313.227 275.443C312.228 274.713 311.094 274.469 309.827 274.714Z" stroke="#BDF7E8"/>
<path d="M319.977 284.487L319.232 274.194C320.024 274.051 320.861 273.948 321.744 273.884C322.638 273.819 323.411 274.004 324.062 274.438C324.713 274.861 325.074 275.552 325.143 276.509C325.212 277.467 324.849 278.284 324.053 278.962C323.257 279.63 322.284 280.005 321.135 280.088C321.082 280.092 321.023 280.096 320.959 280.101L320.922 279.59C320.965 279.587 321.002 279.584 321.034 279.582C321.981 279.513 322.787 279.204 323.453 278.653C324.119 278.102 324.423 277.428 324.365 276.63C324.308 275.832 324.016 275.27 323.49 274.945C322.974 274.618 322.312 274.484 321.503 274.543C321.078 274.574 320.579 274.631 320.008 274.715L320.711 284.434L319.977 284.487Z" stroke="#BDF7E8"/>
<path d="M337.297 281.987L336.304 276.834L329.218 278.201L330.212 283.354L329.489 283.493L327.523 273.297L328.246 273.157L329.094 277.556L336.179 276.19L335.331 271.791L336.054 271.652L338.02 281.848L337.297 281.987Z" stroke="#BDF7E8"/>
<path d="M342.432 280.728L339.189 270.863L339.889 270.633L343.131 280.498L342.432 280.728Z" stroke="#BDF7E8"/>
<path d="M347.522 279.325L343.797 269.632L348.322 267.893L348.552 268.49L344.713 269.965L346.068 273.49L349.533 272.158L349.757 272.741L346.292 274.072L347.968 278.433L351.956 276.901L352.197 277.528L347.522 279.325Z" stroke="#BDF7E8"/>
<path d="M232.818 105.341V121.341H215.818V105.341H232.818ZM210.818 105.341V121.341H193.818V105.341H210.818ZM232.818 84.3408V100.341H215.818V84.3408H232.818ZM210.818 84.3408V100.341H193.818V84.3408H210.818Z" stroke="#4E2E36" stroke-width="3"/>
</svg>
